# This file uses centimeters as units for non-parametric coordinates.

mtllib poste2.mtl
g default
v 3.504872 -1.005064 2.009628
v 3.337992 2.287499 2.324262
v 2.998808 -1.005064 2.491832
v 3.321128 2.287499 2.340331
v 3.251840 -1.005064 2.250730
v 3.329560 2.287499 2.332297
v 3.166098 -0.978177 2.517367
v 3.522304 -0.978177 2.177956
v 3.273988 -0.978177 2.502939
v 3.372139 -0.978177 2.455877
v 3.450943 -0.978177 2.380789
v 3.502686 -0.978177 2.285023
v 3.338383 2.286739 2.328038
v 3.324880 2.286739 2.340904
v 3.337637 2.286778 2.332111
v 3.335679 2.286800 2.335734
v 3.332698 2.286800 2.338575
v 3.328985 2.286778 2.340355
v 3.504872 2.066655 2.009628
v 3.251840 2.066655 2.250730
v 2.998808 2.066655 2.491832
v 3.166098 2.039768 2.517367
v 3.273988 2.039768 2.502939
v 3.372139 2.039768 2.455877
v 3.450943 2.039768 2.380789
v 3.502686 2.039768 2.285023
v 3.522304 2.039768 2.177956
v 3.414034 2.228595 2.178815
v 3.492852 2.098109 2.031516
v 3.428588 2.213924 2.151146
v 3.445407 2.191033 2.119467
v 3.462844 2.162165 2.086880
v 3.479193 2.130146 2.056574
v 3.256840 2.096838 2.255978
v 3.293343 2.228977 2.294287
v 3.262932 2.129286 2.262371
v 3.270379 2.161714 2.270187
v 3.278455 2.190947 2.278662
v 3.286368 2.214124 2.286967
v 3.021250 2.098109 2.480883
v 3.172181 2.228596 2.409265
v 3.046938 2.130146 2.468448
v 3.077998 2.162165 2.453582
v 3.111389 2.191033 2.437737
v 3.143842 2.213923 2.422467
v 3.250704 2.215889 2.421207
v 3.176875 2.073179 2.504592
v 3.236642 2.198925 2.436599
v 3.220663 2.173408 2.454390
v 3.204329 2.141835 2.472838
v 3.189241 2.107299 2.490136
v 3.277356 2.071992 2.491560
v 3.302896 2.216580 2.413572
v 3.281476 2.106520 2.478049
v 3.286612 2.141489 2.461876
v 3.292262 2.173476 2.444622
v 3.297873 2.199351 2.427978
v 3.369232 2.070737 2.447888
v 3.349553 2.217338 2.390561
v 3.365661 2.105694 2.437916
v 3.361495 2.141122 2.426005
v 3.357141 2.173555 2.413323
v 3.353026 2.199817 2.401109
v 3.443103 2.070737 2.377500
v 3.386792 2.217338 2.355078
v 3.433315 2.105694 2.373452
v 3.421619 2.141122 2.368716
v 3.409161 2.173555 2.363755
v 3.397161 2.199817 2.359056
v 3.491158 2.071993 2.287838
v 3.412028 2.216580 2.309586
v 3.477464 2.106520 2.291301
v 3.461061 2.141489 2.295651
v 3.443555 2.173476 2.300462
v 3.426659 2.199351 2.305264
v 3.509024 2.073179 2.188103
v 3.422172 2.215889 2.257823
v 3.493988 2.107299 2.199758
v 3.475981 2.141835 2.213994
v 3.456767 2.173407 2.229418
v 3.438226 2.198925 2.244520
vt 0.375000 0.750000
vt 0.375000 0.851864
vt 0.625000 0.851864
vt 0.625000 0.750000
vt 0.375000 0.250000
vt 0.375000 0.500000
vt 0.625000 0.500000
vt 0.625000 0.250000
vt 0.672169 0.547169
vt 0.654272 0.719760
vt 0.708998 0.723612
vt 0.751559 0.713541
vt 0.784949 0.689781
vt 0.814781 0.659949
vt 0.838541 0.626559
vt 0.848612 0.583998
vt 0.844760 0.529272
vt 0.375000 0.148136
vt 0.625000 0.148136
vt 0.375000 0.897641
vt 0.625000 0.897641
vt 0.375000 1.000000
vt 0.625000 1.000000
vt 0.375000 0.000000
vt 0.375000 0.061064
vt 0.625000 0.061064
vt 0.625000 0.000000
vt 0.375000 0.102359
vt 0.625000 0.102359
vt 0.125000 0.500000
vt 0.125000 0.601864
vt 0.136297 0.643594
vt 0.164566 0.677662
vt 0.197338 0.710434
vt 0.231406 0.738703
vt 0.273136 0.750000
vt 0.630472 0.505472
vt 0.628539 0.746344
vt 0.656962 0.531962
vt 0.644774 0.729573
vt 0.766602 0.735761
vt 0.768594 0.738703
vt 0.802662 0.710434
vt 0.800672 0.708114
vt 0.757033 0.721626
vt 0.790581 0.696348
vt 0.821348 0.665580
vt 0.846626 0.632033
vt 0.857171 0.589792
vt 0.854573 0.519774
vt 0.714792 0.732171
vt 0.871344 0.503539
vt 0.875000 0.500000
vt 0.860761 0.641602
vt 0.863703 0.643594
vt 0.875000 0.601864
vt 0.871800 0.599697
vt 0.833113 0.675671
vt 0.835434 0.677662
vt 0.724697 0.746800
vt 0.726864 0.750000
vt 0.722466 0.743212
vt 0.632636 0.742004
vt 0.720185 0.738972
vt 0.637671 0.736492
vt 0.717903 0.735678
vt 0.641211 0.733555
vt 0.716103 0.733804
vt 0.643049 0.731434
vt 0.867004 0.507636
vt 0.868212 0.597466
vt 0.861492 0.512671
vt 0.863972 0.595185
vt 0.858555 0.516211
vt 0.860678 0.592903
vt 0.856434 0.518049
vt 0.858804 0.591103
vt 0.857284 0.639413
vt 0.853148 0.637104
vt 0.849878 0.634897
vt 0.848167 0.633263
vt 0.830259 0.673301
vt 0.826918 0.670669
vt 0.824119 0.668303
vt 0.822649 0.666795
vt 0.798301 0.705259
vt 0.795669 0.701918
vt 0.793303 0.699120
vt 0.791795 0.697649
vt 0.764413 0.732284
vt 0.762104 0.728148
vt 0.759897 0.724878
vt 0.758263 0.723166
vt 0.636895 0.511895
vt 0.644342 0.519342
vt 0.650597 0.525597
vt 0.654004 0.529004
vn -0.150892 0.000000 0.988550
vn -0.150892 0.000000 0.988550
vn -0.150892 0.000000 0.988550
vn -0.150892 0.000000 0.988550
vn -0.689800 0.000000 -0.724000
vn -0.689800 0.000000 -0.724000
vn -0.689800 0.000000 -0.724000
vn -0.689800 0.000000 -0.724000
vn -0.689800 0.000000 -0.724000
vn -0.689800 0.000000 -0.724000
vn -0.689800 0.000000 -0.724000
vn -0.689800 0.000000 -0.724000
vn 0.093801 0.990706 0.098501
vn 0.093801 0.990706 0.098501
vn 0.093801 0.990706 0.098501
vn 0.093801 0.990706 0.098501
vn 0.093801 0.990706 0.098501
vn 0.093801 0.990706 0.098501
vn 0.093801 0.990706 0.098501
vn 0.093801 0.990706 0.098501
vn 0.093801 0.990706 0.098501
vn 0.994682 0.000000 -0.102998
vn 0.994682 0.000000 -0.102998
vn 0.994682 0.000000 -0.102998
vn 0.994682 0.000000 -0.102998
vn 0.132498 0.000000 0.991183
vn 0.132498 0.000000 0.991183
vn 0.132498 0.000000 0.991183
vn 0.132498 0.000000 0.991183
vn 0.432393 0.000000 0.901685
vn 0.432393 0.000000 0.901685
vn 0.432393 0.000000 0.901685
vn 0.432393 0.000000 0.901685
vn 0.689800 0.000000 0.724000
vn 0.689800 0.000000 0.724000
vn 0.689800 0.000000 0.724000
vn 0.689800 0.000000 0.724000
vn 0.879777 0.000000 0.475387
vn 0.879777 0.000000 0.475387
vn 0.879777 0.000000 0.475387
vn 0.879777 0.000000 0.475387
vn 0.983629 0.000000 0.180205
vn 0.983629 0.000000 0.180205
vn 0.983629 0.000000 0.180205
vn 0.983629 0.000000 0.180205
vn 0.096997 -0.990065 0.101796
vn 0.096997 -0.990065 0.101796
vn 0.096997 -0.990065 0.101796
vn 0.096997 -0.990065 0.101796
vn 0.096997 -0.990065 0.101796
vn 0.096997 -0.990065 0.101796
vn 0.096997 -0.990065 0.101796
vn 0.096997 -0.990065 0.101796
vn 0.096997 -0.990065 0.101796
vn -0.670763 0.233487 -0.703961
vn -0.670763 0.233487 -0.703961
vn -0.670763 0.233487 -0.703961
vn -0.670763 0.233487 -0.703961
vn -0.513487 0.667783 -0.538886
vn -0.513487 0.667783 -0.538886
vn -0.513487 0.667783 -0.538886
vn -0.513487 0.667783 -0.538886
vn 0.417109 0.263506 0.869819
vn 0.417109 0.263506 0.869819
vn 0.417109 0.263506 0.869819
vn 0.417109 0.263506 0.869819
vn 0.340505 0.615009 0.711210
vn 0.340505 0.615009 0.711210
vn 0.340505 0.615009 0.711210
vn 0.340505 0.615009 0.711210
vn 0.562705 0.578505 0.590505
vn 0.562705 0.578505 0.590505
vn 0.562705 0.578505 0.590505
vn 0.562705 0.578505 0.590505
vn 0.693936 0.615032 0.374419
vn 0.693936 0.615032 0.374419
vn 0.693936 0.615032 0.374419
vn 0.693936 0.615032 0.374419
vn 0.700686 0.701986 0.127497
vn 0.700686 0.701986 0.127497
vn 0.700686 0.701986 0.127497
vn 0.700686 0.701986 0.127497
vn 0.670304 0.740304 0.051400
vn 0.670304 0.740304 0.051400
vn 0.670304 0.740304 0.051400
vn 0.670304 0.740304 0.051400
vn 0.019000 0.740304 0.672004
vn 0.019000 0.740304 0.672004
vn 0.019000 0.740304 0.672004
vn 0.019000 0.740304 0.672004
vn 0.093501 0.702006 0.706006
vn 0.093501 0.702006 0.706006
vn 0.093501 0.702006 0.706006
vn 0.093501 0.702006 0.706006
vn -0.670763 0.233487 -0.703961
vn -0.670763 0.233487 -0.703961
vn -0.670763 0.233487 -0.703961
vn -0.670763 0.233487 -0.703961
vn 0.932335 0.318712 0.170806
vn 0.932335 0.318712 0.170806
vn 0.932335 0.318712 0.170806
vn 0.932335 0.318712 0.170806
vn 0.848662 0.263588 0.458579
vn 0.848662 0.263588 0.458579
vn 0.848662 0.263588 0.458579
vn 0.848662 0.263588 0.458579
vn 0.669002 0.243901 0.702103
vn 0.669002 0.243901 0.702103
vn 0.669002 0.243901 0.702103
vn 0.669002 0.243901 0.702103
vn 0.125600 0.318699 0.939498
vn 0.125600 0.318699 0.939498
vn 0.125600 0.318699 0.939498
vn 0.125600 0.318699 0.939498
vn -0.079905 0.378224 0.922259
vn -0.079905 0.378224 0.922259
vn -0.079905 0.378224 0.922259
vn -0.079905 0.378224 0.922259
vn 0.925008 0.378303 -0.035300
vn 0.925008 0.378303 -0.035300
vn 0.925008 0.378303 -0.035300
vn 0.925008 0.378303 -0.035300
vn -0.072500 0.411101 0.908702
vn -0.072500 0.411101 0.908702
vn -0.072500 0.411101 0.908702
vn -0.072500 0.411101 0.908702
vn -0.059298 0.467381 0.882065
vn -0.059298 0.467381 0.882065
vn -0.059298 0.467381 0.882065
vn -0.059298 0.467381 0.882065
vn -0.045898 0.521273 0.852155
vn -0.045898 0.521273 0.852155
vn -0.045898 0.521273 0.852155
vn -0.045898 0.521273 0.852155
vn -0.029400 0.583604 0.811506
vn -0.029400 0.583604 0.811506
vn -0.029400 0.583604 0.811506
vn -0.029400 0.583604 0.811506
vn -0.003700 0.673226 0.739428
vn -0.003700 0.673226 0.739428
vn -0.003700 0.673226 0.739428
vn -0.003700 0.673226 0.739428
vn 0.911134 0.411116 -0.028601
vn 0.911134 0.411116 -0.028601
vn 0.911134 0.411116 -0.028601
vn 0.911134 0.411116 -0.028601
vn 0.883891 0.467395 -0.016700
vn 0.883891 0.467395 -0.016700
vn 0.883891 0.467395 -0.016700
vn 0.883891 0.467395 -0.016700
vn 0.853371 0.521282 -0.004700
vn 0.853371 0.521282 -0.004700
vn 0.853371 0.521282 -0.004700
vn 0.853371 0.521282 -0.004700
vn 0.811988 0.583592 0.009800
vn 0.811988 0.583592 0.009800
vn 0.811988 0.583592 0.009800
vn 0.811988 0.583592 0.009800
vn 0.738737 0.673234 0.032002
vn 0.738737 0.673234 0.032002
vn 0.738737 0.673234 0.032002
vn 0.738737 0.673234 0.032002
vn 0.921893 0.348498 0.169299
vn 0.921893 0.348498 0.169299
vn 0.921893 0.348498 0.169299
vn 0.921893 0.348498 0.169299
vn 0.900677 0.401490 0.166096
vn 0.900677 0.401490 0.166096
vn 0.900677 0.401490 0.166096
vn 0.900677 0.401490 0.166096
vn 0.875905 0.454403 0.162201
vn 0.875905 0.454403 0.162201
vn 0.875905 0.454403 0.162201
vn 0.875905 0.454403 0.162201
vn 0.840400 0.519000 0.156100
vn 0.840400 0.519000 0.156100
vn 0.840400 0.519000 0.156100
vn 0.840400 0.519000 0.156100
vn 0.772076 0.619281 0.142796
vn 0.772076 0.619281 0.142796
vn 0.772076 0.619281 0.142796
vn 0.772076 0.619281 0.142796
vn 0.842194 0.288498 0.455497
vn 0.842194 0.288498 0.455497
vn 0.842194 0.288498 0.455497
vn 0.842194 0.288498 0.455497
vn 0.829001 0.333400 0.449001
vn 0.829001 0.333400 0.449001
vn 0.829001 0.333400 0.449001
vn 0.829001 0.333400 0.449001
vn 0.813307 0.379303 0.441204
vn 0.813307 0.379303 0.441204
vn 0.813307 0.379303 0.441204
vn 0.813307 0.379303 0.441204
vn 0.790327 0.437215 0.429215
vn 0.790327 0.437215 0.429215
vn 0.790327 0.437215 0.429215
vn 0.790327 0.437215 0.429215
vn 0.744495 0.531596 0.403897
vn 0.744495 0.531596 0.403897
vn 0.744495 0.531596 0.403897
vn 0.744495 0.531596 0.403897
vn 0.664807 0.266903 0.697707
vn 0.664807 0.266903 0.697707
vn 0.664807 0.266903 0.697707
vn 0.664807 0.266903 0.697707
vn 0.656122 0.308710 0.688623
vn 0.656122 0.308710 0.688623
vn 0.656122 0.308710 0.688623
vn 0.656122 0.308710 0.688623
vn 0.645791 0.351695 0.677691
vn 0.645791 0.351695 0.677691
vn 0.645791 0.351695 0.677691
vn 0.645791 0.351695 0.677691
vn 0.630293 0.406396 0.661493
vn 0.630293 0.406396 0.661493
vn 0.630293 0.406396 0.661493
vn 0.630293 0.406396 0.661493
vn 0.598602 0.496902 0.628302
vn 0.598602 0.496902 0.628302
vn 0.598602 0.496902 0.628302
vn 0.598602 0.496902 0.628302
vn 0.414302 0.288501 0.863204
vn 0.414302 0.288501 0.863204
vn 0.414302 0.288501 0.863204
vn 0.414302 0.288501 0.863204
vn 0.408496 0.333397 0.849692
vn 0.408496 0.333397 0.849692
vn 0.408496 0.333397 0.849692
vn 0.408496 0.333397 0.849692
vn 0.401424 0.379323 0.833650
vn 0.401424 0.379323 0.833650
vn 0.401424 0.379323 0.833650
vn 0.401424 0.379323 0.833650
vn 0.390605 0.437206 0.810110
vn 0.390605 0.437206 0.810110
vn 0.390605 0.437206 0.810110
vn 0.390605 0.437206 0.810110
vn 0.367504 0.531606 0.763109
vn 0.367504 0.531606 0.763109
vn 0.367504 0.531606 0.763109
vn 0.367504 0.531606 0.763109
vn 0.124599 0.348497 0.928991
vn 0.124599 0.348497 0.928991
vn 0.124599 0.348497 0.928991
vn 0.124599 0.348497 0.928991
vn 0.122503 0.401511 0.907624
vn 0.122503 0.401511 0.907624
vn 0.122503 0.401511 0.907624
vn 0.122503 0.401511 0.907624
vn 0.119702 0.454408 0.882715
vn 0.119702 0.454408 0.882715
vn 0.119702 0.454408 0.882715
vn 0.119702 0.454408 0.882715
vn 0.115306 0.519027 0.846945
vn 0.115306 0.519027 0.846945
vn 0.115306 0.519027 0.846945
vn 0.115306 0.519027 0.846945
vn 0.105402 0.619213 0.778117
vn 0.105402 0.619213 0.778117
vn 0.105402 0.619213 0.778117
vn 0.105402 0.619213 0.778117
vn -0.665507 0.262503 -0.698708
vn -0.665507 0.262503 -0.698708
vn -0.665507 0.262503 -0.698708
vn -0.665507 0.262503 -0.698708
vn -0.654318 0.315809 -0.687119
vn -0.654318 0.315809 -0.687119
vn -0.654318 0.315809 -0.687119
vn -0.654318 0.315809 -0.687119
vn -0.640120 0.371612 -0.672421
vn -0.640120 0.371612 -0.672421
vn -0.640120 0.371612 -0.672421
vn -0.640120 0.371612 -0.672421
vn -0.617991 0.443294 -0.649290
vn -0.617991 0.443294 -0.649290
vn -0.617991 0.443294 -0.649290
vn -0.617991 0.443294 -0.649290
vn -0.570073 0.562574 -0.598772
vn -0.570073 0.562574 -0.598772
vn -0.570073 0.562574 -0.598772
vn -0.570073 0.562574 -0.598772
vn -0.665712 0.262505 -0.698512
vn -0.665712 0.262505 -0.698512
vn -0.665712 0.262505 -0.698512
vn -0.665712 0.262505 -0.698512
vn -0.654784 0.315792 -0.686683
vn -0.654784 0.315792 -0.686683
vn -0.654784 0.315792 -0.686683
vn -0.654784 0.315792 -0.686683
vn -0.640792 0.371595 -0.671791
vn -0.640792 0.371595 -0.671791
vn -0.640792 0.371595 -0.671791
vn -0.640792 0.371595 -0.671791
vn -0.618704 0.443303 -0.648604
vn -0.618704 0.443303 -0.648604
vn -0.618704 0.443303 -0.648604
vn -0.618704 0.443303 -0.648604
vn -0.570581 0.562581 -0.598280
vn -0.570581 0.562581 -0.598280
vn -0.570581 0.562581 -0.598280
vn -0.570581 0.562581 -0.598280
vn -0.513487 0.667783 -0.538886
vn -0.513487 0.667783 -0.538886
vn -0.513487 0.667783 -0.538886
vn -0.513487 0.667783 -0.538886
s off
g poste2_Mesh
usemtl lambert6SG
f 3/1/1 7/2/2 22/3/3 21/4/4
f 1/5/5 5/6/6 20/7/7 19/8/8
f 5/6/9 3/1/10 21/4/11 20/7/12
f 6/9/13 4/10/14 14/11/15 18/12/16 17/13/17 16/14/18 15/15/19 13/16/20 2/17/21
f 8/18/22 1/5/23 19/8/24 27/19/25
f 7/2/26 9/20/27 23/21/28 22/3/29
f 9/20/30 10/22/31 24/23/32 23/21/33
f 10/24/34 11/25/35 25/26/36 24/27/37
f 11/25/38 12/28/39 26/29/40 25/26/41
f 12/28/42 8/18/43 27/19/44 26/29/45
f 1/30/46 8/31/47 12/32/48 11/33/49 10/34/50 9/35/51 7/36/52 3/1/53 5/6/54
f 34/37/55 20/7/56 21/4/57 40/38/58
f 6/9/59 35/39/60 41/40/61 4/10/62
f 52/41/63 23/42/64 24/43/65 58/44/66
f 18/12/67 53/45/68 59/46/69 17/13/70
f 17/13/71 59/46/72 65/47/73 16/14/74
f 16/14/75 65/47/76 71/48/77 15/15/78
f 15/15/79 71/48/80 77/49/81 13/16/82
f 13/16/83 77/49/84 28/50/85 2/17/86
f 4/10/87 41/40/88 46/51/89 14/11/90
f 14/11/91 46/51/92 53/45/93 18/12/94
f 29/52/95 19/53/96 20/7/97 34/37/98
f 70/54/99 26/55/100 27/56/101 76/57/102
f 64/58/103 25/59/104 26/55/105 70/54/106
f 58/44/107 24/43/108 25/59/109 64/58/110
f 47/60/111 22/61/112 23/42/113 52/41/114
f 40/38/115 21/4/116 22/61/117 47/60/118
f 76/57/119 27/56/120 19/53/121 29/52/122
f 47/60/123 51/62/124 42/63/125 40/38/126
f 51/62/127 50/64/128 43/65/129 42/63/130
f 50/64/131 49/66/132 44/67/133 43/65/134
f 49/66/135 48/68/136 45/69/137 44/67/138
f 48/68/139 46/51/140 41/40/141 45/69/142
f 29/52/143 33/70/144 78/71/145 76/57/146
f 33/70/147 32/72/148 79/73/149 78/71/150
f 32/72/151 31/74/152 80/75/153 79/73/154
f 31/74/155 30/76/156 81/77/157 80/75/158
f 30/76/159 28/50/160 77/49/161 81/77/162
f 76/57/163 78/71/164 72/78/165 70/54/166
f 78/71/167 79/73/168 73/79/169 72/78/170
f 79/73/171 80/75/172 74/80/173 73/79/174
f 80/75/175 81/77/176 75/81/177 74/80/178
f 81/77/179 77/49/180 71/48/181 75/81/182
f 70/54/183 72/78/184 66/82/185 64/58/186
f 72/78/187 73/79/188 67/83/189 66/82/190
f 73/79/191 74/80/192 68/84/193 67/83/194
f 74/80/195 75/81/196 69/85/197 68/84/198
f 75/81/199 71/48/200 65/47/201 69/85/202
f 64/58/203 66/82/204 60/86/205 58/44/206
f 66/82/207 67/83/208 61/87/209 60/86/210
f 67/83/211 68/84/212 62/88/213 61/87/214
f 68/84/215 69/85/216 63/89/217 62/88/218
f 69/85/219 65/47/220 59/46/221 63/89/222
f 58/44/223 60/86/224 54/90/225 52/41/226
f 60/86/227 61/87/228 55/91/229 54/90/230
f 61/87/231 62/88/232 56/92/233 55/91/234
f 62/88/235 63/89/236 57/93/237 56/92/238
f 63/89/239 59/46/240 53/45/241 57/93/242
f 52/41/243 54/90/244 51/62/245 47/60/246
f 54/90/247 55/91/248 50/64/249 51/62/250
f 55/91/251 56/92/252 49/66/253 50/64/254
f 56/92/255 57/93/256 48/68/257 49/66/258
f 57/93/259 53/45/260 46/51/261 48/68/262
f 40/38/263 42/63/264 36/94/265 34/37/266
f 42/63/267 43/65/268 37/95/269 36/94/270
f 43/65/271 44/67/272 38/96/273 37/95/274
f 44/67/275 45/69/276 39/97/277 38/96/278
f 45/69/279 41/40/280 35/39/281 39/97/282
f 34/37/283 36/94/284 33/70/285 29/52/286
f 36/94/287 37/95/288 32/72/289 33/70/290
f 37/95/291 38/96/292 31/74/293 32/72/294
f 38/96/295 39/97/296 30/76/297 31/74/298
f 39/97/299 35/39/300 28/50/301 30/76/302
f 2/17/303 28/50/304 35/39/305 6/9/306
