# This file uses centimeters as units for non-parametric coordinates.

mtllib poste1.mtl
g default
v 3.010614 -1.005064 -2.503643
v 3.325330 2.287499 -2.336918
v 3.493067 -1.005064 -1.997817
v 3.341407 2.287499 -2.320062
v 3.251840 -1.005064 -2.250730
v 3.333368 2.287499 -2.328490
v 3.518519 -0.978177 -2.165119
v 3.178932 -0.978177 -2.521158
v 3.504038 -0.978177 -2.273002
v 3.456928 -0.978177 -2.371130
v 3.381800 -0.978177 -2.449897
v 3.286010 -0.978177 -2.501593
v 3.329105 2.286739 -2.337311
v 3.341978 2.286739 -2.323815
v 3.333179 2.286778 -2.336567
v 3.336803 2.286800 -2.334611
v 3.339645 2.286800 -2.331631
v 3.341427 2.286778 -2.327919
v 3.010614 2.066655 -2.503643
v 3.251840 2.066655 -2.250730
v 3.493067 2.066655 -1.997817
v 3.518519 2.039768 -2.165119
v 3.504038 2.039768 -2.273002
v 3.456928 2.039768 -2.371130
v 3.381800 2.039768 -2.449897
v 3.286010 2.039768 -2.501593
v 3.178932 2.039768 -2.521158
v 3.179845 2.228595 -2.412889
v 3.032507 2.098109 -2.491634
v 3.152169 2.213924 -2.427429
v 3.120482 2.191033 -2.444232
v 3.087886 2.162165 -2.461653
v 3.057572 2.130146 -2.477987
v 3.257086 2.096838 -2.255733
v 3.295377 2.228977 -2.292255
v 3.263475 2.129286 -2.261827
v 3.271288 2.161714 -2.269279
v 3.279759 2.190947 -2.277359
v 3.288060 2.214124 -2.285275
v 3.482106 2.098109 -2.020253
v 3.410414 2.228596 -2.171149
v 3.469659 2.130146 -2.045935
v 3.454777 2.162165 -2.076988
v 3.438917 2.191033 -2.110371
v 3.423630 2.213923 -2.142817
v 3.422318 2.215889 -2.249678
v 3.505739 2.073179 -2.175890
v 3.437717 2.198925 -2.235624
v 3.455516 2.173408 -2.219653
v 3.473971 2.141835 -2.203329
v 3.491277 2.107299 -2.188249
v 3.492657 2.071992 -2.276365
v 3.414657 2.216580 -2.301867
v 3.479145 2.106520 -2.280477
v 3.462969 2.141489 -2.285606
v 3.445713 2.173476 -2.291247
v 3.429065 2.199351 -2.296851
v 3.448941 2.070737 -2.368219
v 3.391623 2.217338 -2.348512
v 3.438970 2.105694 -2.364643
v 3.427062 2.141122 -2.360471
v 3.414381 2.173555 -2.356111
v 3.402169 2.199817 -2.351990
v 3.378515 2.070737 -2.442056
v 3.356121 2.217338 -2.385733
v 3.374473 2.105694 -2.432265
v 3.369742 2.141122 -2.420567
v 3.364788 2.173555 -2.408107
v 3.360095 2.199817 -2.396104
v 3.288831 2.071993 -2.490066
v 3.310617 2.216580 -2.410946
v 3.292300 2.106520 -2.476374
v 3.296658 2.141489 -2.459973
v 3.301478 2.173476 -2.442470
v 3.306288 2.199351 -2.425576
v 3.189087 2.073179 -2.507883
v 3.258849 2.215889 -2.421066
v 3.200748 2.107299 -2.492853
v 3.214993 2.141835 -2.474853
v 3.230427 2.173407 -2.455646
v 3.245538 2.198925 -2.437113
vt 0.375000 0.750000
vt 0.375000 0.851864
vt 0.625000 0.851864
vt 0.625000 0.750000
vt 0.375000 0.250000
vt 0.375000 0.500000
vt 0.625000 0.500000
vt 0.625000 0.250000
vt 0.672169 0.547169
vt 0.654272 0.719760
vt 0.708998 0.723612
vt 0.751559 0.713541
vt 0.784949 0.689781
vt 0.814781 0.659949
vt 0.838541 0.626559
vt 0.848612 0.583998
vt 0.844760 0.529272
vt 0.375000 0.148136
vt 0.625000 0.148136
vt 0.375000 0.897641
vt 0.625000 0.897641
vt 0.375000 1.000000
vt 0.625000 1.000000
vt 0.375000 0.000000
vt 0.375000 0.061064
vt 0.625000 0.061064
vt 0.625000 0.000000
vt 0.375000 0.102359
vt 0.625000 0.102359
vt 0.125000 0.500000
vt 0.125000 0.601864
vt 0.136297 0.643594
vt 0.164566 0.677662
vt 0.197338 0.710434
vt 0.231406 0.738703
vt 0.273136 0.750000
vt 0.630472 0.505472
vt 0.628539 0.746344
vt 0.656962 0.531962
vt 0.644774 0.729573
vt 0.766602 0.735761
vt 0.768594 0.738703
vt 0.802662 0.710434
vt 0.800672 0.708114
vt 0.757033 0.721626
vt 0.790581 0.696348
vt 0.821348 0.665580
vt 0.846626 0.632033
vt 0.857171 0.589792
vt 0.854573 0.519774
vt 0.714792 0.732171
vt 0.871344 0.503539
vt 0.875000 0.500000
vt 0.860761 0.641602
vt 0.863703 0.643594
vt 0.875000 0.601864
vt 0.871800 0.599697
vt 0.833113 0.675671
vt 0.835434 0.677662
vt 0.724697 0.746800
vt 0.726864 0.750000
vt 0.722466 0.743212
vt 0.632636 0.742004
vt 0.720185 0.738972
vt 0.637671 0.736492
vt 0.717903 0.735678
vt 0.641211 0.733555
vt 0.716103 0.733804
vt 0.643049 0.731434
vt 0.867004 0.507636
vt 0.868212 0.597466
vt 0.861492 0.512671
vt 0.863972 0.595185
vt 0.858555 0.516211
vt 0.860678 0.592903
vt 0.856434 0.518049
vt 0.858804 0.591103
vt 0.857284 0.639413
vt 0.853148 0.637104
vt 0.849878 0.634897
vt 0.848167 0.633263
vt 0.830259 0.673301
vt 0.826918 0.670669
vt 0.824119 0.668303
vt 0.822649 0.666795
vt 0.798301 0.705259
vt 0.795669 0.701918
vt 0.793303 0.699120
vt 0.791795 0.697649
vt 0.764413 0.732284
vt 0.762104 0.728148
vt 0.759897 0.724878
vt 0.758263 0.723166
vt 0.636895 0.511895
vt 0.644342 0.519342
vt 0.650597 0.525597
vt 0.654004 0.529004
vn 0.988625 0.000000 0.150404
vn 0.988625 0.000000 0.150404
vn 0.988625 0.000000 0.150404
vn 0.988625 0.000000 0.150404
vn -0.723610 0.000000 0.690209
vn -0.723610 0.000000 0.690209
vn -0.723610 0.000000 0.690209
vn -0.723610 0.000000 0.690209
vn -0.723610 0.000000 0.690209
vn -0.723610 0.000000 0.690209
vn -0.723610 0.000000 0.690209
vn -0.723610 0.000000 0.690209
vn 0.098401 0.990707 -0.093901
vn 0.098401 0.990707 -0.093901
vn 0.098401 0.990707 -0.093901
vn 0.098401 0.990707 -0.093901
vn 0.098401 0.990707 -0.093901
vn 0.098401 0.990707 -0.093901
vn 0.098401 0.990707 -0.093901
vn 0.098401 0.990707 -0.093901
vn 0.098401 0.990707 -0.093901
vn -0.103503 0.000000 -0.994629
vn -0.103503 0.000000 -0.994629
vn -0.103503 0.000000 -0.994629
vn -0.103503 0.000000 -0.994629
vn 0.991116 0.000000 -0.133002
vn 0.991116 0.000000 -0.133002
vn 0.991116 0.000000 -0.133002
vn 0.991116 0.000000 -0.133002
vn 0.901492 0.000000 -0.432796
vn 0.901492 0.000000 -0.432796
vn 0.901492 0.000000 -0.432796
vn 0.901492 0.000000 -0.432796
vn 0.723610 0.000000 -0.690209
vn 0.723610 0.000000 -0.690209
vn 0.723610 0.000000 -0.690209
vn 0.723610 0.000000 -0.690209
vn 0.474917 0.000000 -0.880031
vn 0.474917 0.000000 -0.880031
vn 0.474917 0.000000 -0.880031
vn 0.474917 0.000000 -0.880031
vn 0.179704 0.000000 -0.983721
vn 0.179704 0.000000 -0.983721
vn 0.179704 0.000000 -0.983721
vn 0.179704 0.000000 -0.983721
vn 0.101795 -0.990056 -0.097096
vn 0.101795 -0.990056 -0.097096
vn 0.101795 -0.990056 -0.097096
vn 0.101795 -0.990056 -0.097096
vn 0.101795 -0.990056 -0.097096
vn 0.101795 -0.990056 -0.097096
vn 0.101795 -0.990056 -0.097096
vn 0.101795 -0.990056 -0.097096
vn 0.101795 -0.990056 -0.097096
vn -0.703617 0.233506 0.671117
vn -0.703617 0.233506 0.671117
vn -0.703617 0.233506 0.671117
vn -0.703617 0.233506 0.671117
vn -0.538590 0.667788 0.513790
vn -0.538590 0.667788 0.513790
vn -0.538590 0.667788 0.513790
vn -0.538590 0.667788 0.513790
vn 0.869625 0.263508 -0.417512
vn 0.869625 0.263508 -0.417512
vn 0.869625 0.263508 -0.417512
vn 0.869625 0.263508 -0.417512
vn 0.711015 0.615013 -0.340907
vn 0.711015 0.615013 -0.340907
vn 0.711015 0.615013 -0.340907
vn 0.711015 0.615013 -0.340907
vn 0.590210 0.578509 -0.563009
vn 0.590210 0.578509 -0.563009
vn 0.590210 0.578509 -0.563009
vn 0.590210 0.578509 -0.563009
vn 0.374109 0.615015 -0.694117
vn 0.374109 0.615015 -0.694117
vn 0.374109 0.615015 -0.694117
vn 0.374109 0.615015 -0.694117
vn 0.127095 0.701972 -0.700772
vn 0.127095 0.701972 -0.700772
vn 0.127095 0.701972 -0.700772
vn 0.127095 0.701972 -0.700772
vn 0.051001 0.740320 -0.670318
vn 0.051001 0.740320 -0.670318
vn 0.051001 0.740320 -0.670318
vn 0.051001 0.740320 -0.670318
vn 0.672000 0.740300 -0.019300
vn 0.672000 0.740300 -0.019300
vn 0.672000 0.740300 -0.019300
vn 0.672000 0.740300 -0.019300
vn 0.705980 0.701980 -0.093897
vn 0.705980 0.701980 -0.093897
vn 0.705980 0.701980 -0.093897
vn 0.705980 0.701980 -0.093897
vn -0.703617 0.233506 0.671117
vn -0.703617 0.233506 0.671117
vn -0.703617 0.233506 0.671117
vn -0.703617 0.233506 0.671117
vn 0.170402 0.318704 -0.932411
vn 0.170402 0.318704 -0.932411
vn 0.170402 0.318704 -0.932411
vn 0.170402 0.318704 -0.932411
vn 0.458106 0.263604 -0.848912
vn 0.458106 0.263604 -0.848912
vn 0.458106 0.263604 -0.848912
vn 0.458106 0.263604 -0.848912
vn 0.701810 0.243903 -0.669309
vn 0.701810 0.243903 -0.669309
vn 0.701810 0.243903 -0.669309
vn 0.701810 0.243903 -0.669309
vn 0.939457 0.318619 -0.126108
vn 0.939457 0.318619 -0.126108
vn 0.939457 0.318619 -0.126108
vn 0.939457 0.318619 -0.126108
vn 0.922268 0.378287 0.079497
vn 0.922268 0.378287 0.079497
vn 0.922268 0.378287 0.079497
vn 0.922268 0.378287 0.079497
vn -0.035800 0.378297 -0.924992
vn -0.035800 0.378297 -0.924992
vn -0.035800 0.378297 -0.924992
vn -0.035800 0.378297 -0.924992
vn 0.908729 0.411113 0.072102
vn 0.908729 0.411113 0.072102
vn 0.908729 0.411113 0.072102
vn 0.908729 0.411113 0.072102
vn 0.882086 0.467393 0.058899
vn 0.882086 0.467393 0.058899
vn 0.882086 0.467393 0.058899
vn 0.882086 0.467393 0.058899
vn 0.852171 0.521282 0.045498
vn 0.852171 0.521282 0.045498
vn 0.852171 0.521282 0.045498
vn 0.852171 0.521282 0.045498
vn 0.811515 0.583611 0.029001
vn 0.811515 0.583611 0.029001
vn 0.811515 0.583611 0.029001
vn 0.811515 0.583611 0.029001
vn 0.739429 0.673226 0.003300
vn 0.739429 0.673226 0.003300
vn 0.739429 0.673226 0.003300
vn 0.739429 0.673226 0.003300
vn -0.029101 0.411110 -0.911121
vn -0.029101 0.411110 -0.911121
vn -0.029101 0.411110 -0.911121
vn -0.029101 0.411110 -0.911121
vn -0.017100 0.467392 -0.883885
vn -0.017100 0.467392 -0.883885
vn -0.017100 0.467392 -0.883885
vn -0.017100 0.467392 -0.883885
vn -0.005100 0.521281 -0.853370
vn -0.005100 0.521281 -0.853370
vn -0.005100 0.521281 -0.853370
vn -0.005100 0.521281 -0.853370
vn 0.009400 0.583594 -0.811991
vn 0.009400 0.583594 -0.811991
vn 0.009400 0.583594 -0.811991
vn 0.009400 0.583594 -0.811991
vn 0.031700 0.673190 -0.738789
vn 0.031700 0.673190 -0.738789
vn 0.031700 0.673190 -0.738789
vn 0.031700 0.673190 -0.738789
vn 0.168895 0.348489 -0.921971
vn 0.168895 0.348489 -0.921971
vn 0.168895 0.348489 -0.921971
vn 0.168895 0.348489 -0.921971
vn 0.165692 0.401480 -0.900755
vn 0.165692 0.401480 -0.900755
vn 0.165692 0.401480 -0.900755
vn 0.165692 0.401480 -0.900755
vn 0.161797 0.454392 -0.875985
vn 0.161797 0.454392 -0.875985
vn 0.161797 0.454392 -0.875985
vn 0.161797 0.454392 -0.875985
vn 0.155599 0.518997 -0.840495
vn 0.155599 0.518997 -0.840495
vn 0.155599 0.518997 -0.840495
vn 0.155599 0.518997 -0.840495
vn 0.142499 0.619198 -0.772197
vn 0.142499 0.619198 -0.772197
vn 0.142499 0.619198 -0.772197
vn 0.142499 0.619198 -0.772197
vn 0.455103 0.288502 -0.842406
vn 0.455103 0.288502 -0.842406
vn 0.455103 0.288502 -0.842406
vn 0.455103 0.288502 -0.842406
vn 0.448607 0.333405 -0.829212
vn 0.448607 0.333405 -0.829212
vn 0.448607 0.333405 -0.829212
vn 0.448607 0.333405 -0.829212
vn 0.440810 0.379308 -0.813518
vn 0.440810 0.379308 -0.813518
vn 0.440810 0.379308 -0.813518
vn 0.440810 0.379308 -0.813518
vn 0.428902 0.437202 -0.790504
vn 0.428902 0.437202 -0.790504
vn 0.428902 0.437202 -0.790504
vn 0.428902 0.437202 -0.790504
vn 0.403502 0.531603 -0.744704
vn 0.403502 0.531603 -0.744704
vn 0.403502 0.531603 -0.744704
vn 0.403502 0.531603 -0.744704
vn 0.697395 0.266998 -0.665095
vn 0.697395 0.266998 -0.665095
vn 0.697395 0.266998 -0.665095
vn 0.697395 0.266998 -0.665095
vn 0.688285 0.308693 -0.656485
vn 0.688285 0.308693 -0.656485
vn 0.688285 0.308693 -0.656485
vn 0.688285 0.308693 -0.656485
vn 0.677397 0.351698 -0.646097
vn 0.677397 0.351698 -0.646097
vn 0.677397 0.351698 -0.646097
vn 0.677397 0.351698 -0.646097
vn 0.661199 0.406399 -0.630599
vn 0.661199 0.406399 -0.630599
vn 0.661199 0.406399 -0.630599
vn 0.661199 0.406399 -0.630599
vn 0.628008 0.496906 -0.598908
vn 0.628008 0.496906 -0.598908
vn 0.628008 0.496906 -0.598908
vn 0.628008 0.496906 -0.598908
vn 0.863010 0.288503 -0.414705
vn 0.863010 0.288503 -0.414705
vn 0.863010 0.288503 -0.414705
vn 0.863010 0.288503 -0.414705
vn 0.849526 0.333310 -0.408913
vn 0.849526 0.333310 -0.408913
vn 0.849526 0.333310 -0.408913
vn 0.849526 0.333310 -0.408913
vn 0.833486 0.379294 -0.401793
vn 0.833486 0.379294 -0.401793
vn 0.833486 0.379294 -0.401793
vn 0.833486 0.379294 -0.401793
vn 0.809915 0.437208 -0.391007
vn 0.809915 0.437208 -0.391007
vn 0.809915 0.437208 -0.391007
vn 0.809915 0.437208 -0.391007
vn 0.762913 0.531609 -0.367906
vn 0.762913 0.531609 -0.367906
vn 0.762913 0.531609 -0.367906
vn 0.762913 0.531609 -0.367906
vn 0.928920 0.348507 -0.125103
vn 0.928920 0.348507 -0.125103
vn 0.928920 0.348507 -0.125103
vn 0.928920 0.348507 -0.125103
vn 0.907580 0.401491 -0.122897
vn 0.907580 0.401491 -0.122897
vn 0.907580 0.401491 -0.122897
vn 0.907580 0.401491 -0.122897
vn 0.882662 0.454380 -0.120195
vn 0.882662 0.454380 -0.120195
vn 0.882662 0.454380 -0.120195
vn 0.882662 0.454380 -0.120195
vn 0.846906 0.519003 -0.115701
vn 0.846906 0.519003 -0.115701
vn 0.846906 0.519003 -0.115701
vn 0.846906 0.519003 -0.115701
vn 0.777996 0.619297 -0.105799
vn 0.777996 0.619297 -0.105799
vn 0.777996 0.619297 -0.105799
vn 0.777996 0.619297 -0.105799
vn -0.698317 0.262506 0.665916
vn -0.698317 0.262506 0.665916
vn -0.698317 0.262506 0.665916
vn -0.698317 0.262506 0.665916
vn -0.686781 0.315791 0.654682
vn -0.686781 0.315791 0.654682
vn -0.686781 0.315791 0.654682
vn -0.686781 0.315791 0.654682
vn -0.672085 0.371592 0.640486
vn -0.672085 0.371592 0.640486
vn -0.672085 0.371592 0.640486
vn -0.672085 0.371592 0.640486
vn -0.648997 0.443298 0.618297
vn -0.648997 0.443298 0.618297
vn -0.648997 0.443298 0.618297
vn -0.648997 0.443298 0.618297
vn -0.598511 0.562610 0.570311
vn -0.598511 0.562610 0.570311
vn -0.598511 0.562610 0.570311
vn -0.598511 0.562610 0.570311
vn -0.698173 0.262490 0.666074
vn -0.698173 0.262490 0.666074
vn -0.698173 0.262490 0.666074
vn -0.698173 0.262490 0.666074
vn -0.686390 0.315795 0.655090
vn -0.686390 0.315795 0.655090
vn -0.686390 0.315795 0.655090
vn -0.686390 0.315795 0.655090
vn -0.671497 0.371599 0.641097
vn -0.671497 0.371599 0.641097
vn -0.671497 0.371599 0.641097
vn -0.671497 0.371599 0.641097
vn -0.648310 0.443307 0.619010
vn -0.648310 0.443307 0.619010
vn -0.648310 0.443307 0.619010
vn -0.648310 0.443307 0.619010
vn -0.597985 0.562586 0.570886
vn -0.597985 0.562586 0.570886
vn -0.597985 0.562586 0.570886
vn -0.597985 0.562586 0.570886
vn -0.538590 0.667788 0.513790
vn -0.538590 0.667788 0.513790
vn -0.538590 0.667788 0.513790
vn -0.538590 0.667788 0.513790
s off
g poste1_Mesh
usemtl lambert6SG
f 3/1/1 7/2/2 22/3/3 21/4/4
f 1/5/5 5/6/6 20/7/7 19/8/8
f 5/6/9 3/1/10 21/4/11 20/7/12
f 6/9/13 4/10/14 14/11/15 18/12/16 17/13/17 16/14/18 15/15/19 13/16/20 2/17/21
f 8/18/22 1/5/23 19/8/24 27/19/25
f 7/2/26 9/20/27 23/21/28 22/3/29
f 9/20/30 10/22/31 24/23/32 23/21/33
f 10/24/34 11/25/35 25/26/36 24/27/37
f 11/25/38 12/28/39 26/29/40 25/26/41
f 12/28/42 8/18/43 27/19/44 26/29/45
f 1/30/46 8/31/47 12/32/48 11/33/49 10/34/50 9/35/51 7/36/52 3/1/53 5/6/54
f 34/37/55 20/7/56 21/4/57 40/38/58
f 6/9/59 35/39/60 41/40/61 4/10/62
f 52/41/63 23/42/64 24/43/65 58/44/66
f 18/12/67 53/45/68 59/46/69 17/13/70
f 17/13/71 59/46/72 65/47/73 16/14/74
f 16/14/75 65/47/76 71/48/77 15/15/78
f 15/15/79 71/48/80 77/49/81 13/16/82
f 13/16/83 77/49/84 28/50/85 2/17/86
f 4/10/87 41/40/88 46/51/89 14/11/90
f 14/11/91 46/51/92 53/45/93 18/12/94
f 29/52/95 19/53/96 20/7/97 34/37/98
f 70/54/99 26/55/100 27/56/101 76/57/102
f 64/58/103 25/59/104 26/55/105 70/54/106
f 58/44/107 24/43/108 25/59/109 64/58/110
f 47/60/111 22/61/112 23/42/113 52/41/114
f 40/38/115 21/4/116 22/61/117 47/60/118
f 76/57/119 27/56/120 19/53/121 29/52/122
f 47/60/123 51/62/124 42/63/125 40/38/126
f 51/62/127 50/64/128 43/65/129 42/63/130
f 50/64/131 49/66/132 44/67/133 43/65/134
f 49/66/135 48/68/136 45/69/137 44/67/138
f 48/68/139 46/51/140 41/40/141 45/69/142
f 29/52/143 33/70/144 78/71/145 76/57/146
f 33/70/147 32/72/148 79/73/149 78/71/150
f 32/72/151 31/74/152 80/75/153 79/73/154
f 31/74/155 30/76/156 81/77/157 80/75/158
f 30/76/159 28/50/160 77/49/161 81/77/162
f 76/57/163 78/71/164 72/78/165 70/54/166
f 78/71/167 79/73/168 73/79/169 72/78/170
f 79/73/171 80/75/172 74/80/173 73/79/174
f 80/75/175 81/77/176 75/81/177 74/80/178
f 81/77/179 77/49/180 71/48/181 75/81/182
f 70/54/183 72/78/184 66/82/185 64/58/186
f 72/78/187 73/79/188 67/83/189 66/82/190
f 73/79/191 74/80/192 68/84/193 67/83/194
f 74/80/195 75/81/196 69/85/197 68/84/198
f 75/81/199 71/48/200 65/47/201 69/85/202
f 64/58/203 66/82/204 60/86/205 58/44/206
f 66/82/207 67/83/208 61/87/209 60/86/210
f 67/83/211 68/84/212 62/88/213 61/87/214
f 68/84/215 69/85/216 63/89/217 62/88/218
f 69/85/219 65/47/220 59/46/221 63/89/222
f 58/44/223 60/86/224 54/90/225 52/41/226
f 60/86/227 61/87/228 55/91/229 54/90/230
f 61/87/231 62/88/232 56/92/233 55/91/234
f 62/88/235 63/89/236 57/93/237 56/92/238
f 63/89/239 59/46/240 53/45/241 57/93/242
f 52/41/243 54/90/244 51/62/245 47/60/246
f 54/90/247 55/91/248 50/64/249 51/62/250
f 55/91/251 56/92/252 49/66/253 50/64/254
f 56/92/255 57/93/256 48/68/257 49/66/258
f 57/93/259 53/45/260 46/51/261 48/68/262
f 40/38/263 42/63/264 36/94/265 34/37/266
f 42/63/267 43/65/268 37/95/269 36/94/270
f 43/65/271 44/67/272 38/96/273 37/95/274
f 44/67/275 45/69/276 39/97/277 38/96/278
f 45/69/279 41/40/280 35/39/281 39/97/282
f 34/37/283 36/94/284 33/70/285 29/52/286
f 36/94/287 37/95/288 32/72/289 33/70/290
f 37/95/291 38/96/292 31/74/293 32/72/294
f 38/96/295 39/97/296 30/76/297 31/74/298
f 39/97/299 35/39/300 28/50/301 30/76/302
f 2/17/303 28/50/304 35/39/305 6/9/306
