# This file uses centimeters as units for non-parametric coordinates.

mtllib poste4.mtl
g default
v -3.504752 -1.005064 -2.009502
v -3.338029 2.287499 -2.324219
v -2.998928 -1.005064 -2.491958
v -3.321172 2.287499 -2.340297
v -3.251840 -1.005064 -2.250730
v -3.329600 2.287499 -2.332258
v -3.166231 -0.978177 -2.517409
v -3.522268 -0.978177 -2.177821
v -3.274113 -0.978177 -2.502928
v -3.372241 -0.978177 -2.455817
v -3.451007 -0.978177 -2.380689
v -3.502703 -0.978177 -2.284899
v -3.338421 2.286739 -2.327995
v -3.324925 2.286739 -2.340868
v -3.337677 2.286778 -2.332068
v -3.335721 2.286800 -2.335692
v -3.332742 2.286800 -2.338535
v -3.329029 2.286778 -2.340317
v -3.504752 2.066655 -2.009502
v -3.251840 2.066655 -2.250730
v -2.998928 2.066655 -2.491958
v -3.166231 2.039768 -2.517409
v -3.274113 2.039768 -2.502928
v -3.372241 2.039768 -2.455817
v -3.451007 2.039768 -2.380689
v -3.502703 2.039768 -2.284899
v -3.522268 2.039768 -2.177821
v -3.413998 2.228595 -2.178734
v -3.492743 2.098109 -2.031396
v -3.428539 2.213924 -2.151058
v -3.445342 2.191033 -2.119371
v -3.462763 2.162165 -2.086775
v -3.479096 2.130146 -2.056461
v -3.256843 2.096838 -2.255975
v -3.293365 2.228977 -2.294267
v -3.262937 2.129286 -2.262365
v -3.270389 2.161714 -2.270178
v -3.278469 2.190947 -2.278649
v -3.286386 2.214124 -2.286950
v -3.021364 2.098109 -2.480997
v -3.172260 2.228596 -2.409305
v -3.047046 2.130146 -2.468550
v -3.078099 2.162165 -2.453668
v -3.111482 2.191033 -2.437807
v -3.143927 2.213923 -2.422521
v -3.250789 2.215889 -2.421207
v -3.177001 2.073179 -2.504630
v -3.236735 2.198925 -2.436607
v -3.220764 2.173408 -2.454406
v -3.204440 2.141835 -2.472861
v -3.189360 2.107299 -2.490167
v -3.277476 2.071992 -2.491547
v -3.302978 2.216580 -2.413546
v -3.281589 2.106520 -2.478034
v -3.286717 2.141489 -2.461858
v -3.292358 2.173476 -2.444602
v -3.297961 2.199351 -2.427955
v -3.369330 2.070737 -2.447830
v -3.349622 2.217338 -2.390512
v -3.365754 2.105694 -2.437859
v -3.361582 2.141122 -2.425951
v -3.357222 2.173555 -2.413270
v -3.353101 2.199817 -2.401059
v -3.443166 2.070737 -2.377404
v -3.386843 2.217338 -2.355011
v -3.433376 2.105694 -2.373362
v -3.421678 2.141122 -2.368632
v -3.409217 2.173555 -2.363677
v -3.397214 2.199817 -2.358984
v -3.491176 2.071993 -2.287719
v -3.412057 2.216580 -2.309506
v -3.477484 2.106520 -2.291189
v -3.461084 2.141489 -2.295547
v -3.443580 2.173476 -2.300367
v -3.426687 2.199351 -2.305177
v -3.508993 2.073179 -2.187976
v -3.422176 2.215889 -2.257738
v -3.493963 2.107299 -2.199637
v -3.475963 2.141835 -2.213882
v -3.456756 2.173407 -2.229316
v -3.438223 2.198925 -2.244428
vt 0.375000 0.750000
vt 0.375000 0.851864
vt 0.625000 0.851864
vt 0.625000 0.750000
vt 0.375000 0.250000
vt 0.375000 0.500000
vt 0.625000 0.500000
vt 0.625000 0.250000
vt 0.672169 0.547169
vt 0.654272 0.719760
vt 0.708998 0.723612
vt 0.751559 0.713541
vt 0.784949 0.689781
vt 0.814781 0.659949
vt 0.838541 0.626559
vt 0.848612 0.583998
vt 0.844760 0.529272
vt 0.375000 0.148136
vt 0.625000 0.148136
vt 0.375000 0.897641
vt 0.625000 0.897641
vt 0.375000 1.000000
vt 0.625000 1.000000
vt 0.375000 0.000000
vt 0.375000 0.061064
vt 0.625000 0.061064
vt 0.625000 0.000000
vt 0.375000 0.102359
vt 0.625000 0.102359
vt 0.125000 0.500000
vt 0.125000 0.601864
vt 0.136297 0.643594
vt 0.164566 0.677662
vt 0.197338 0.710434
vt 0.231406 0.738703
vt 0.273136 0.750000
vt 0.630472 0.505472
vt 0.628539 0.746344
vt 0.656962 0.531962
vt 0.644774 0.729573
vt 0.766602 0.735761
vt 0.768594 0.738703
vt 0.802662 0.710434
vt 0.800672 0.708114
vt 0.757033 0.721626
vt 0.790581 0.696348
vt 0.821348 0.665580
vt 0.846626 0.632033
vt 0.857171 0.589792
vt 0.854573 0.519774
vt 0.714792 0.732171
vt 0.871344 0.503539
vt 0.875000 0.500000
vt 0.860761 0.641602
vt 0.863703 0.643594
vt 0.875000 0.601864
vt 0.871800 0.599697
vt 0.833113 0.675671
vt 0.835434 0.677662
vt 0.724697 0.746800
vt 0.726864 0.750000
vt 0.722466 0.743212
vt 0.632636 0.742004
vt 0.720185 0.738972
vt 0.637671 0.736492
vt 0.717903 0.735678
vt 0.641211 0.733555
vt 0.716103 0.733804
vt 0.643049 0.731434
vt 0.867004 0.507636
vt 0.868212 0.597466
vt 0.861492 0.512671
vt 0.863972 0.595185
vt 0.858555 0.516211
vt 0.860678 0.592903
vt 0.856434 0.518049
vt 0.858804 0.591103
vt 0.857284 0.639413
vt 0.853148 0.637104
vt 0.849878 0.634897
vt 0.848167 0.633263
vt 0.830259 0.673301
vt 0.826918 0.670669
vt 0.824119 0.668303
vt 0.822649 0.666795
vt 0.798301 0.705259
vt 0.795669 0.701918
vt 0.793303 0.699120
vt 0.791795 0.697649
vt 0.764413 0.732284
vt 0.762104 0.728148
vt 0.759897 0.724878
vt 0.758263 0.723166
vt 0.636895 0.511895
vt 0.644342 0.519342
vt 0.650597 0.525597
vt 0.654004 0.529004
vn 0.150404 0.000000 -0.988625
vn 0.150404 0.000000 -0.988625
vn 0.150404 0.000000 -0.988625
vn 0.150404 0.000000 -0.988625
vn 0.690209 0.000000 0.723610
vn 0.690209 0.000000 0.723610
vn 0.690209 0.000000 0.723610
vn 0.690209 0.000000 0.723610
vn 0.690209 0.000000 0.723610
vn 0.690209 0.000000 0.723610
vn 0.690209 0.000000 0.723610
vn 0.690209 0.000000 0.723610
vn -0.093901 0.990707 -0.098401
vn -0.093901 0.990707 -0.098401
vn -0.093901 0.990707 -0.098401
vn -0.093901 0.990707 -0.098401
vn -0.093901 0.990707 -0.098401
vn -0.093901 0.990707 -0.098401
vn -0.093901 0.990707 -0.098401
vn -0.093901 0.990707 -0.098401
vn -0.093901 0.990707 -0.098401
vn -0.994629 0.000000 0.103503
vn -0.994629 0.000000 0.103503
vn -0.994629 0.000000 0.103503
vn -0.994629 0.000000 0.103503
vn -0.133002 0.000000 -0.991116
vn -0.133002 0.000000 -0.991116
vn -0.133002 0.000000 -0.991116
vn -0.133002 0.000000 -0.991116
vn -0.432796 0.000000 -0.901492
vn -0.432796 0.000000 -0.901492
vn -0.432796 0.000000 -0.901492
vn -0.432796 0.000000 -0.901492
vn -0.690209 0.000000 -0.723610
vn -0.690209 0.000000 -0.723610
vn -0.690209 0.000000 -0.723610
vn -0.690209 0.000000 -0.723610
vn -0.880031 0.000000 -0.474917
vn -0.880031 0.000000 -0.474917
vn -0.880031 0.000000 -0.474917
vn -0.880031 0.000000 -0.474917
vn -0.983721 0.000000 -0.179704
vn -0.983721 0.000000 -0.179704
vn -0.983721 0.000000 -0.179704
vn -0.983721 0.000000 -0.179704
vn -0.097096 -0.990056 -0.101795
vn -0.097096 -0.990056 -0.101795
vn -0.097096 -0.990056 -0.101795
vn -0.097096 -0.990056 -0.101795
vn -0.097096 -0.990056 -0.101795
vn -0.097096 -0.990056 -0.101795
vn -0.097096 -0.990056 -0.101795
vn -0.097096 -0.990056 -0.101795
vn -0.097096 -0.990056 -0.101795
vn 0.671117 0.233506 0.703617
vn 0.671117 0.233506 0.703617
vn 0.671117 0.233506 0.703617
vn 0.671117 0.233506 0.703617
vn 0.513790 0.667788 0.538590
vn 0.513790 0.667788 0.538590
vn 0.513790 0.667788 0.538590
vn 0.513790 0.667788 0.538590
vn -0.417512 0.263508 -0.869625
vn -0.417512 0.263508 -0.869625
vn -0.417512 0.263508 -0.869625
vn -0.417512 0.263508 -0.869625
vn -0.340907 0.615013 -0.711015
vn -0.340907 0.615013 -0.711015
vn -0.340907 0.615013 -0.711015
vn -0.340907 0.615013 -0.711015
vn -0.562976 0.578475 -0.590275
vn -0.562976 0.578475 -0.590275
vn -0.562976 0.578475 -0.590275
vn -0.562976 0.578475 -0.590275
vn -0.694117 0.615015 -0.374109
vn -0.694117 0.615015 -0.374109
vn -0.694117 0.615015 -0.374109
vn -0.694117 0.615015 -0.374109
vn -0.700772 0.701972 -0.127095
vn -0.700772 0.701972 -0.127095
vn -0.700772 0.701972 -0.127095
vn -0.700772 0.701972 -0.127095
vn -0.670318 0.740320 -0.051001
vn -0.670318 0.740320 -0.051001
vn -0.670318 0.740320 -0.051001
vn -0.670318 0.740320 -0.051001
vn -0.019300 0.740300 -0.672000
vn -0.019300 0.740300 -0.672000
vn -0.019300 0.740300 -0.672000
vn -0.019300 0.740300 -0.672000
vn -0.093897 0.701980 -0.705980
vn -0.093897 0.701980 -0.705980
vn -0.093897 0.701980 -0.705980
vn -0.093897 0.701980 -0.705980
vn 0.671117 0.233506 0.703617
vn 0.671117 0.233506 0.703617
vn 0.671117 0.233506 0.703617
vn 0.671117 0.233506 0.703617
vn -0.932411 0.318704 -0.170402
vn -0.932411 0.318704 -0.170402
vn -0.932411 0.318704 -0.170402
vn -0.932411 0.318704 -0.170402
vn -0.848934 0.263511 -0.458119
vn -0.848934 0.263511 -0.458119
vn -0.848934 0.263511 -0.458119
vn -0.848934 0.263511 -0.458119
vn -0.669309 0.243903 -0.701810
vn -0.669309 0.243903 -0.701810
vn -0.669309 0.243903 -0.701810
vn -0.669309 0.243903 -0.701810
vn -0.126104 0.318709 -0.939427
vn -0.126104 0.318709 -0.939427
vn -0.126104 0.318709 -0.939427
vn -0.126104 0.318709 -0.939427
vn 0.079500 0.378201 -0.922303
vn 0.079500 0.378201 -0.922303
vn 0.079500 0.378201 -0.922303
vn 0.079500 0.378201 -0.922303
vn -0.924992 0.378297 0.035800
vn -0.924992 0.378297 0.035800
vn -0.924992 0.378297 0.035800
vn -0.924992 0.378297 0.035800
vn 0.072102 0.411113 -0.908729
vn 0.072102 0.411113 -0.908729
vn 0.072102 0.411113 -0.908729
vn 0.072102 0.411113 -0.908729
vn 0.058899 0.467393 -0.882086
vn 0.058899 0.467393 -0.882086
vn 0.058899 0.467393 -0.882086
vn 0.058899 0.467393 -0.882086
vn 0.045498 0.521282 -0.852171
vn 0.045498 0.521282 -0.852171
vn 0.045498 0.521282 -0.852171
vn 0.045498 0.521282 -0.852171
vn 0.029001 0.583611 -0.811515
vn 0.029001 0.583611 -0.811515
vn 0.029001 0.583611 -0.811515
vn 0.029001 0.583611 -0.811515
vn 0.003300 0.673226 -0.739429
vn 0.003300 0.673226 -0.739429
vn 0.003300 0.673226 -0.739429
vn 0.003300 0.673226 -0.739429
vn -0.911121 0.411110 0.029101
vn -0.911121 0.411110 0.029101
vn -0.911121 0.411110 0.029101
vn -0.911121 0.411110 0.029101
vn -0.883885 0.467392 0.017100
vn -0.883885 0.467392 0.017100
vn -0.883885 0.467392 0.017100
vn -0.883885 0.467392 0.017100
vn -0.853369 0.521281 0.005200
vn -0.853369 0.521281 0.005200
vn -0.853369 0.521281 0.005200
vn -0.853369 0.521281 0.005200
vn -0.811991 0.583594 -0.009400
vn -0.811991 0.583594 -0.009400
vn -0.811991 0.583594 -0.009400
vn -0.811991 0.583594 -0.009400
vn -0.738789 0.673190 -0.031700
vn -0.738789 0.673190 -0.031700
vn -0.738789 0.673190 -0.031700
vn -0.738789 0.673190 -0.031700
vn -0.921971 0.348489 -0.168895
vn -0.921971 0.348489 -0.168895
vn -0.921971 0.348489 -0.168895
vn -0.921971 0.348489 -0.168895
vn -0.900755 0.401480 -0.165692
vn -0.900755 0.401480 -0.165692
vn -0.900755 0.401480 -0.165692
vn -0.900755 0.401480 -0.165692
vn -0.875985 0.454392 -0.161797
vn -0.875985 0.454392 -0.161797
vn -0.875985 0.454392 -0.161797
vn -0.875985 0.454392 -0.161797
vn -0.840495 0.518997 -0.155599
vn -0.840495 0.518997 -0.155599
vn -0.840495 0.518997 -0.155599
vn -0.840495 0.518997 -0.155599
vn -0.772149 0.619259 -0.142491
vn -0.772149 0.619259 -0.142491
vn -0.772149 0.619259 -0.142491
vn -0.772149 0.619259 -0.142491
vn -0.842406 0.288502 -0.455103
vn -0.842406 0.288502 -0.455103
vn -0.842406 0.288502 -0.455103
vn -0.842406 0.288502 -0.455103
vn -0.829212 0.333405 -0.448607
vn -0.829212 0.333405 -0.448607
vn -0.829212 0.333405 -0.448607
vn -0.829212 0.333405 -0.448607
vn -0.813518 0.379308 -0.440810
vn -0.813518 0.379308 -0.440810
vn -0.813518 0.379308 -0.440810
vn -0.813518 0.379308 -0.440810
vn -0.790538 0.437221 -0.428821
vn -0.790538 0.437221 -0.428821
vn -0.790538 0.437221 -0.428821
vn -0.790538 0.437221 -0.428821
vn -0.744704 0.531603 -0.403502
vn -0.744704 0.531603 -0.403502
vn -0.744704 0.531603 -0.403502
vn -0.744704 0.531603 -0.403502
vn -0.665169 0.266888 -0.697367
vn -0.665169 0.266888 -0.697367
vn -0.665169 0.266888 -0.697367
vn -0.665169 0.266888 -0.697367
vn -0.656485 0.308693 -0.688285
vn -0.656485 0.308693 -0.688285
vn -0.656485 0.308693 -0.688285
vn -0.656485 0.308693 -0.688285
vn -0.646097 0.351698 -0.677397
vn -0.646097 0.351698 -0.677397
vn -0.646097 0.351698 -0.677397
vn -0.646097 0.351698 -0.677397
vn -0.630599 0.406399 -0.661199
vn -0.630599 0.406399 -0.661199
vn -0.630599 0.406399 -0.661199
vn -0.630599 0.406399 -0.661199
vn -0.598945 0.496937 -0.627947
vn -0.598945 0.496937 -0.627947
vn -0.598945 0.496937 -0.627947
vn -0.598945 0.496937 -0.627947
vn -0.414705 0.288503 -0.863010
vn -0.414705 0.288503 -0.863010
vn -0.414705 0.288503 -0.863010
vn -0.414705 0.288503 -0.863010
vn -0.408913 0.333310 -0.849526
vn -0.408913 0.333310 -0.849526
vn -0.408913 0.333310 -0.849526
vn -0.408913 0.333310 -0.849526
vn -0.401827 0.379325 -0.833455
vn -0.401827 0.379325 -0.833455
vn -0.401827 0.379325 -0.833455
vn -0.401827 0.379325 -0.833455
vn -0.391007 0.437208 -0.809915
vn -0.391007 0.437208 -0.809915
vn -0.391007 0.437208 -0.809915
vn -0.391007 0.437208 -0.809915
vn -0.367906 0.531609 -0.762913
vn -0.367906 0.531609 -0.762913
vn -0.367906 0.531609 -0.762913
vn -0.367906 0.531609 -0.762913
vn -0.125103 0.348507 -0.928920
vn -0.125103 0.348507 -0.928920
vn -0.125103 0.348507 -0.928920
vn -0.125103 0.348507 -0.928920
vn -0.122897 0.401491 -0.907580
vn -0.122897 0.401491 -0.907580
vn -0.122897 0.401491 -0.907580
vn -0.122897 0.401491 -0.907580
vn -0.120195 0.454380 -0.882662
vn -0.120195 0.454380 -0.882662
vn -0.120195 0.454380 -0.882662
vn -0.120195 0.454380 -0.882662
vn -0.115701 0.519003 -0.846906
vn -0.115701 0.519003 -0.846906
vn -0.115701 0.519003 -0.846906
vn -0.115701 0.519003 -0.846906
vn -0.105806 0.619235 -0.778044
vn -0.105806 0.619235 -0.778044
vn -0.105806 0.619235 -0.778044
vn -0.105806 0.619235 -0.778044
vn 0.665916 0.262506 0.698317
vn 0.665916 0.262506 0.698317
vn 0.665916 0.262506 0.698317
vn 0.665916 0.262506 0.698317
vn 0.654682 0.315791 0.686781
vn 0.654682 0.315791 0.686781
vn 0.654682 0.315791 0.686781
vn 0.654682 0.315791 0.686781
vn 0.640486 0.371592 0.672085
vn 0.640486 0.371592 0.672085
vn 0.640486 0.371592 0.672085
vn 0.640486 0.371592 0.672085
vn 0.618297 0.443298 0.648997
vn 0.618297 0.443298 0.648997
vn 0.618297 0.443298 0.648997
vn 0.618297 0.443298 0.648997
vn 0.570378 0.562578 0.598477
vn 0.570378 0.562578 0.598477
vn 0.570378 0.562578 0.598477
vn 0.570378 0.562578 0.598477
vn 0.666074 0.262490 0.698173
vn 0.666074 0.262490 0.698173
vn 0.666074 0.262490 0.698173
vn 0.666074 0.262490 0.698173
vn 0.655090 0.315795 0.686390
vn 0.655090 0.315795 0.686390
vn 0.655090 0.315795 0.686390
vn 0.655090 0.315795 0.686390
vn 0.641097 0.371599 0.671497
vn 0.641097 0.371599 0.671497
vn 0.641097 0.371599 0.671497
vn 0.641097 0.371599 0.671497
vn 0.619010 0.443307 0.648310
vn 0.619010 0.443307 0.648310
vn 0.619010 0.443307 0.648310
vn 0.619010 0.443307 0.648310
vn 0.570886 0.562586 0.597985
vn 0.570886 0.562586 0.597985
vn 0.570886 0.562586 0.597985
vn 0.570886 0.562586 0.597985
vn 0.513790 0.667788 0.538590
vn 0.513790 0.667788 0.538590
vn 0.513790 0.667788 0.538590
vn 0.513790 0.667788 0.538590
s off
g poste4_Mesh
usemtl lambert6SG
f 3/1/1 7/2/2 22/3/3 21/4/4
f 1/5/5 5/6/6 20/7/7 19/8/8
f 5/6/9 3/1/10 21/4/11 20/7/12
f 6/9/13 4/10/14 14/11/15 18/12/16 17/13/17 16/14/18 15/15/19 13/16/20 2/17/21
f 8/18/22 1/5/23 19/8/24 27/19/25
f 7/2/26 9/20/27 23/21/28 22/3/29
f 9/20/30 10/22/31 24/23/32 23/21/33
f 10/24/34 11/25/35 25/26/36 24/27/37
f 11/25/38 12/28/39 26/29/40 25/26/41
f 12/28/42 8/18/43 27/19/44 26/29/45
f 1/30/46 8/31/47 12/32/48 11/33/49 10/34/50 9/35/51 7/36/52 3/1/53 5/6/54
f 34/37/55 20/7/56 21/4/57 40/38/58
f 6/9/59 35/39/60 41/40/61 4/10/62
f 52/41/63 23/42/64 24/43/65 58/44/66
f 18/12/67 53/45/68 59/46/69 17/13/70
f 17/13/71 59/46/72 65/47/73 16/14/74
f 16/14/75 65/47/76 71/48/77 15/15/78
f 15/15/79 71/48/80 77/49/81 13/16/82
f 13/16/83 77/49/84 28/50/85 2/17/86
f 4/10/87 41/40/88 46/51/89 14/11/90
f 14/11/91 46/51/92 53/45/93 18/12/94
f 29/52/95 19/53/96 20/7/97 34/37/98
f 70/54/99 26/55/100 27/56/101 76/57/102
f 64/58/103 25/59/104 26/55/105 70/54/106
f 58/44/107 24/43/108 25/59/109 64/58/110
f 47/60/111 22/61/112 23/42/113 52/41/114
f 40/38/115 21/4/116 22/61/117 47/60/118
f 76/57/119 27/56/120 19/53/121 29/52/122
f 47/60/123 51/62/124 42/63/125 40/38/126
f 51/62/127 50/64/128 43/65/129 42/63/130
f 50/64/131 49/66/132 44/67/133 43/65/134
f 49/66/135 48/68/136 45/69/137 44/67/138
f 48/68/139 46/51/140 41/40/141 45/69/142
f 29/52/143 33/70/144 78/71/145 76/57/146
f 33/70/147 32/72/148 79/73/149 78/71/150
f 32/72/151 31/74/152 80/75/153 79/73/154
f 31/74/155 30/76/156 81/77/157 80/75/158
f 30/76/159 28/50/160 77/49/161 81/77/162
f 76/57/163 78/71/164 72/78/165 70/54/166
f 78/71/167 79/73/168 73/79/169 72/78/170
f 79/73/171 80/75/172 74/80/173 73/79/174
f 80/75/175 81/77/176 75/81/177 74/80/178
f 81/77/179 77/49/180 71/48/181 75/81/182
f 70/54/183 72/78/184 66/82/185 64/58/186
f 72/78/187 73/79/188 67/83/189 66/82/190
f 73/79/191 74/80/192 68/84/193 67/83/194
f 74/80/195 75/81/196 69/85/197 68/84/198
f 75/81/199 71/48/200 65/47/201 69/85/202
f 64/58/203 66/82/204 60/86/205 58/44/206
f 66/82/207 67/83/208 61/87/209 60/86/210
f 67/83/211 68/84/212 62/88/213 61/87/214
f 68/84/215 69/85/216 63/89/217 62/88/218
f 69/85/219 65/47/220 59/46/221 63/89/222
f 58/44/223 60/86/224 54/90/225 52/41/226
f 60/86/227 61/87/228 55/91/229 54/90/230
f 61/87/231 62/88/232 56/92/233 55/91/234
f 62/88/235 63/89/236 57/93/237 56/92/238
f 63/89/239 59/46/240 53/45/241 57/93/242
f 52/41/243 54/90/244 51/62/245 47/60/246
f 54/90/247 55/91/248 50/64/249 51/62/250
f 55/91/251 56/92/252 49/66/253 50/64/254
f 56/92/255 57/93/256 48/68/257 49/66/258
f 57/93/259 53/45/260 46/51/261 48/68/262
f 40/38/263 42/63/264 36/94/265 34/37/266
f 42/63/267 43/65/268 37/95/269 36/94/270
f 43/65/271 44/67/272 38/96/273 37/95/274
f 44/67/275 45/69/276 39/97/277 38/96/278
f 45/69/279 41/40/280 35/39/281 39/97/282
f 34/37/283 36/94/284 33/70/285 29/52/286
f 36/94/287 37/95/288 32/72/289 33/70/290
f 37/95/291 38/96/292 31/74/293 32/72/294
f 38/96/295 39/97/296 30/76/297 31/74/298
f 39/97/299 35/39/300 28/50/301 30/76/302
f 2/17/303 28/50/304 35/39/305 6/9/306
