# This file uses centimeters as units for non-parametric coordinates.

mtllib manoIzq.mtl
g default
v 0.245931 -1.910553 1.354653
v 0.242599 -1.669193 1.447779
v -0.257160 -1.679329 1.456169
v -0.253829 -1.920689 1.363043
v 0.249548 -1.792117 1.713189
v -0.250211 -1.802253 1.721580
v -0.246988 -2.035786 1.631474
v 0.252772 -2.025651 1.623083
v 0.246335 -1.977016 1.298424
v 0.243527 -1.913577 1.207838
v 0.246592 -2.038942 1.238974
v 0.246401 -2.064119 1.197183
v 0.245780 -2.050084 1.177143
v 0.244790 -1.998211 1.180814
v -0.256232 -1.923712 1.216228
v -0.253425 -1.987152 1.306815
v -0.254970 -2.008346 1.189205
v -0.253979 -2.060220 1.185534
v -0.253358 -2.074255 1.205574
v -0.253167 -2.049077 1.247365
v 0.259181 -2.411169 1.615676
v 0.258832 -2.400341 1.531440
v 0.261258 -2.473885 1.587120
v 0.261485 -2.505614 1.562324
v 0.261124 -2.503224 1.543693
v 0.260210 -2.466949 1.533051
v -0.240928 -2.410476 1.539830
v -0.240579 -2.421304 1.624066
v -0.239550 -2.477085 1.541442
v -0.238635 -2.513359 1.552084
v -0.238274 -2.515749 1.570715
v -0.238501 -2.484020 1.595511
v 0.251114 -1.955597 1.608974
v 0.246033 -1.871952 1.407375
v 0.245364 -1.679228 1.600327
v 0.249910 -1.918744 1.581765
v 0.248686 -1.889640 1.544013
v 0.247562 -1.871135 1.499413
v 0.246648 -1.865040 1.452330
v -0.253727 -1.882087 1.415765
v -0.248645 -1.965732 1.617365
v -0.254395 -1.689363 1.608717
v -0.253112 -1.875175 1.460721
v -0.252198 -1.881271 1.507803
v -0.251074 -1.899776 1.552404
v -0.249850 -1.928879 1.590156
v 0.242964 -1.655778 1.485709
v 0.248250 -1.745491 1.692176
v 0.245404 -1.682148 1.599200
v 0.243581 -1.646996 1.533059
v 0.244520 -1.652813 1.581966
v 0.245690 -1.672661 1.627643
v 0.246975 -1.704595 1.665619
v -0.251510 -1.755626 1.700566
v -0.256795 -1.665913 1.494100
v -0.254355 -1.692283 1.607591
v -0.252785 -1.714730 1.674009
v -0.254070 -1.682796 1.636034
v -0.255239 -1.662949 1.590357
v -0.256179 -1.657131 1.541450
v 0.243445 -1.907628 1.210133
v 0.242280 -1.690629 1.402862
v 0.242838 -1.857153 1.234943
v 0.242383 -1.805378 1.270402
v 0.242126 -1.757371 1.313040
v 0.242090 -1.717831 1.358682
v -0.257480 -1.700764 1.411252
v -0.256315 -1.917763 1.218524
v -0.257670 -1.727967 1.367073
v -0.257634 -1.767507 1.321431
v -0.257376 -1.815514 1.278793
v -0.256922 -1.867289 1.243333
v 0.250268 -1.827279 1.730004
v 0.254951 -2.104715 1.733918
v 0.251180 -1.874255 1.746167
v 0.252204 -1.931220 1.755120
v 0.253240 -1.992598 1.755985
v 0.254187 -2.052380 1.748680
v -0.244808 -2.114850 1.742308
v -0.249492 -1.837414 1.738395
v -0.245573 -2.062515 1.757070
v -0.246519 -2.002733 1.764376
v -0.247555 -1.941356 1.763510
v -0.248580 -1.884390 1.754558
vt 0.500000 0.500000
vt 0.531451 0.500000
vt 0.560359 0.503498
vt 0.586438 0.513222
vt 0.607134 0.524130
vt 0.620421 0.533921
vt 0.625000 0.546606
vt 0.625000 0.627033
vt 0.620167 0.664648
vt 0.606140 0.698510
vt 0.584293 0.725784
vt 0.556764 0.743694
vt 0.526249 0.750000
vt 0.500000 0.750000
vt 0.500000 0.000000
vt 0.526249 0.000000
vt 0.556764 0.006306
vt 0.584293 0.024216
vt 0.606140 0.051490
vt 0.620167 0.085352
vt 0.625000 0.122967
vt 0.625000 0.203394
vt 0.620421 0.216079
vt 0.607134 0.225870
vt 0.586438 0.236778
vt 0.560359 0.246502
vt 0.531451 0.250000
vt 0.500000 0.250000
vt 0.875000 0.546606
vt 0.875000 0.627033
vt 0.414091 0.750000
vt 0.437500 0.750000
vt 0.437500 1.000000
vt 0.414091 1.000000
vt 0.468750 0.509469
vt 0.493456 0.500000
vt 0.492443 0.750000
vt 0.468750 0.519623
vt 0.437500 0.000000
vt 0.445719 0.000000
vt 0.468750 0.230377
vt 0.468750 0.240531
vt 0.445292 0.250000
vt 0.437500 0.250000
vt 0.500000 1.000000
vt 0.492443 1.000000
vt 0.375000 0.532262
vt 0.377401 0.524718
vt 0.384371 0.520138
vt 0.395226 0.512122
vt 0.408903 0.503263
vt 0.424066 0.500000
vt 0.437500 0.500000
vt 0.402011 0.745146
vt 0.391114 0.731291
vt 0.382466 0.710145
vt 0.376913 0.683833
vt 0.375000 0.654572
vt 0.125000 0.532262
vt 0.125000 0.654572
vt 0.445719 0.750000
vt 0.445719 1.000000
vt 0.875000 0.659490
vt 0.625000 0.659490
vt 0.875000 0.750000
vt 0.625000 0.750000
vt 0.625000 1.000000
vt 0.566927 1.000000
vt 0.566927 0.750000
vt 0.552314 1.000000
vt 0.552314 0.750000
vt 0.526249 1.000000
vt 0.375000 0.679752
vt 0.125000 0.679752
vt 0.375000 0.693851
vt 0.125000 0.693851
vt 0.375000 0.750000
vt 0.125000 0.750000
vt 0.375000 1.000000
vt 0.403776 0.750000
vt 0.403776 1.000000
vt 0.424066 0.250000
vt 0.445292 0.500000
vt 0.468750 0.509469
vt 0.468750 0.519623
vt 0.493456 0.250000
vt 0.453995 -0.008708
vt 0.460864 0.000000
vt 0.467822 0.000000
vt 0.468750 0.000000
vt 0.468750 0.000000
vt 0.484697 0.750000
vt 0.476862 0.750000
vt 0.469705 0.750000
vt 0.463925 0.750000
vt 0.460089 0.750000
vt 0.484697 1.000000
vt 0.476862 1.000000
vt 0.460864 1.000000
vt 0.460864 0.750000
vt 0.453248 1.000000
vt 0.453248 0.750000
vt 0.485489 0.250000
vt 0.477635 0.250000
vt 0.470665 0.250000
vt 0.465260 0.250000
vt 0.461949 0.250000
vt 0.452857 0.500000
vt 0.460314 0.500000
vt 0.466932 0.500000
vt 0.472064 0.500000
vt 0.475208 0.500000
vt 0.485489 0.500000
vt 0.477635 0.500000
vt 0.460314 0.250000
vt 0.452857 0.250000
vt 0.492443 0.000000
vt 0.625000 0.530711
vt 0.875000 0.530711
vt 0.625000 0.500000
vt 0.875000 0.500000
vt 0.625000 0.250000
vt 0.598136 0.500000
vt 0.598136 0.250000
vt 0.563357 0.500000
vt 0.563357 0.250000
vt 0.124975 0.521327
vt 0.374975 0.521327
vt 0.124904 0.509529
vt 0.374904 0.509529
vt 0.125000 0.500000
vt 0.374792 0.500000
vt 0.375000 0.499792
vt 0.375000 0.250000
vt 0.407434 0.249985
vt 0.407434 0.499985
vt 0.375000 0.095428
vt 0.376913 0.066167
vt 0.382466 0.039855
vt 0.391114 0.018709
vt 0.402011 0.004854
vt 0.414091 0.000000
vt 0.408903 0.246737
vt 0.395226 0.237878
vt 0.384371 0.229862
vt 0.377401 0.225282
vt 0.375000 0.217738
vn -0.999653 -0.020299 0.016799
vn -0.999653 -0.020299 0.016799
vn -0.999653 -0.020299 0.016799
vn -0.999653 -0.020299 0.016799
vn -0.999653 -0.020299 0.016799
vn -0.999653 -0.020299 0.016799
vn -0.999653 -0.020299 0.016799
vn -0.999653 -0.020299 0.016799
vn -0.999653 -0.020299 0.016799
vn -0.999653 -0.020299 0.016799
vn -0.999653 -0.020299 0.016799
vn -0.999653 -0.020299 0.016799
vn -0.999653 -0.020299 0.016799
vn -0.999653 -0.020299 0.016799
vn 0.999653 0.020299 -0.016799
vn 0.999653 0.020299 -0.016799
vn 0.999653 0.020299 -0.016799
vn 0.999653 0.020299 -0.016799
vn 0.999653 0.020299 -0.016799
vn 0.999653 0.020299 -0.016799
vn 0.999653 0.020299 -0.016799
vn 0.999653 0.020299 -0.016799
vn 0.999653 0.020299 -0.016799
vn 0.999653 0.020299 -0.016799
vn 0.999653 0.020299 -0.016799
vn 0.999653 0.020299 -0.016799
vn 0.999653 0.020299 -0.016799
vn 0.999653 0.020299 -0.016799
vn -0.023000 0.359608 -0.932820
vn -0.023000 0.359608 -0.932820
vn -0.023000 0.359608 -0.932820
vn -0.023000 0.359608 -0.932820
vn -0.021101 0.237207 -0.971230
vn -0.021101 0.237207 -0.971230
vn -0.021101 0.237207 -0.971230
vn -0.021101 0.237207 -0.971230
vn -0.999653 -0.020299 0.016799
vn -0.999653 -0.020299 0.016799
vn -0.999653 -0.020299 0.016799
vn -0.999653 -0.020299 0.016799
vn -0.999653 -0.020299 0.016799
vn -0.999653 -0.020299 0.016799
vn 0.999653 0.020299 -0.016799
vn 0.999653 0.020299 -0.016799
vn 0.999653 0.020299 -0.016799
vn 0.999653 0.020299 -0.016799
vn 0.999653 0.020299 -0.016799
vn 0.999653 0.020299 -0.016799
vn 0.026300 -0.806606 0.590504
vn 0.026300 -0.806606 0.590504
vn 0.026300 -0.806606 0.590504
vn 0.026300 -0.806606 0.590504
vn -0.999825 -0.017600 0.006400
vn -0.999825 -0.017600 0.006400
vn -0.999825 -0.017600 0.006400
vn -0.999825 -0.017600 0.006400
vn -0.999825 -0.017600 0.006400
vn -0.999825 -0.017600 0.006400
vn -0.999825 -0.017600 0.006400
vn -0.999825 -0.017600 0.006400
vn -0.999825 -0.017600 0.006400
vn -0.999825 -0.017600 0.006400
vn -0.999825 -0.017600 0.006400
vn -0.999825 -0.017600 0.006400
vn -0.999825 -0.017600 0.006400
vn -0.999825 -0.017600 0.006400
vn 0.023000 -0.359608 0.932820
vn 0.023000 -0.359608 0.932820
vn 0.023000 -0.359608 0.932820
vn 0.023000 -0.359608 0.932820
vn -0.012400 -0.197697 -0.980185
vn -0.012400 -0.197697 -0.980185
vn -0.012400 -0.197697 -0.980185
vn -0.012400 -0.197697 -0.980185
vn -0.022200 0.303793 -0.952479
vn -0.022200 0.303793 -0.952479
vn -0.022200 0.303793 -0.952479
vn -0.022200 0.303793 -0.952479
vn -0.018199 0.070198 -0.997367
vn -0.018199 0.070198 -0.997367
vn -0.018199 0.070198 -0.997367
vn -0.018199 0.070198 -0.997367
vn 0.007000 -0.818977 -0.573784
vn 0.007000 -0.818977 -0.573784
vn 0.007000 -0.818977 -0.573784
vn 0.007000 -0.818977 -0.573784
vn 0.026000 -0.856311 0.515806
vn 0.026000 -0.856311 0.515806
vn 0.026000 -0.856311 0.515806
vn 0.026000 -0.856311 0.515806
vn 0.026101 -0.692217 0.721218
vn 0.026101 -0.692217 0.721218
vn 0.026101 -0.692217 0.721218
vn 0.026101 -0.692217 0.721218
vn 0.025899 -0.645569 0.763263
vn 0.025899 -0.645569 0.763263
vn 0.025899 -0.645569 0.763263
vn 0.025899 -0.645569 0.763263
vn 0.023701 -0.413619 0.910142
vn 0.023701 -0.413619 0.910142
vn 0.023701 -0.413619 0.910142
vn 0.023701 -0.413619 0.910142
vn 0.025700 -0.615398 0.787797
vn 0.025700 -0.615398 0.787797
vn 0.025700 -0.615398 0.787797
vn 0.025700 -0.615398 0.787797
vn 0.018000 -0.991676 -0.127497
vn 0.018000 -0.991676 -0.127497
vn 0.018000 -0.991676 -0.127497
vn 0.018000 -0.991676 -0.127497
vn -0.010400 -0.281712 -0.959443
vn -0.010400 -0.281712 -0.959443
vn -0.010400 -0.281712 -0.959443
vn -0.010400 -0.281712 -0.959443
vn -0.016299 -0.024499 -0.999567
vn -0.016299 -0.024499 -0.999567
vn -0.016299 -0.024499 -0.999567
vn -0.016299 -0.024499 -0.999567
vn 0.006400 0.431496 0.902092
vn 0.006400 0.431496 0.902092
vn 0.006400 0.431496 0.902092
vn 0.006400 0.431496 0.902092
vn -0.999653 -0.020299 0.016799
vn -0.999653 -0.020299 0.016799
vn -0.999653 -0.020299 0.016799
vn -0.999653 -0.020299 0.016799
vn -0.999653 -0.020299 0.016799
vn -0.999653 -0.020299 0.016799
vn -0.024699 0.942572 -0.333090
vn -0.024699 0.942572 -0.333090
vn -0.024699 0.942572 -0.333090
vn -0.024699 0.942572 -0.333090
vn 0.999653 0.020299 -0.016799
vn 0.999653 0.020299 -0.016799
vn 0.999653 0.020299 -0.016799
vn 0.999653 0.020299 -0.016799
vn 0.999653 0.020299 -0.016799
vn 0.999653 0.020299 -0.016799
vn 0.999653 0.020299 -0.016799
vn 0.999653 0.020299 -0.016799
vn 0.999653 0.020299 -0.016799
vn 0.999653 0.020299 -0.016799
vn 0.999653 0.020299 -0.016799
vn 0.999653 0.020299 -0.016799
vn 0.999653 0.020299 -0.016799
vn 0.999653 0.020299 -0.016799
vn 0.999653 0.020299 -0.016799
vn -0.999653 -0.020299 0.016799
vn -0.999653 -0.020299 0.016799
vn -0.999653 -0.020299 0.016799
vn -0.999653 -0.020299 0.016799
vn -0.999653 -0.020299 0.016799
vn -0.999653 -0.020299 0.016799
vn -0.999653 -0.020299 0.016799
vn -0.999653 -0.020299 0.016799
vn -0.999653 -0.020299 0.016799
vn -0.999653 -0.020299 0.016799
vn -0.999653 -0.020299 0.016799
vn -0.999653 -0.020299 0.016799
vn -0.999653 -0.020299 0.016799
vn -0.999653 -0.020299 0.016799
vn -0.999653 -0.020299 0.016799
vn 0.022600 -0.988184 0.151598
vn 0.022600 -0.988184 0.151598
vn 0.022600 -0.988184 0.151598
vn 0.022600 -0.988184 0.151598
vn 0.017900 -0.991522 -0.128703
vn 0.017900 -0.991522 -0.128703
vn 0.017900 -0.991522 -0.128703
vn 0.017900 -0.991522 -0.128703
vn 0.012300 -0.923465 -0.383485
vn 0.012300 -0.923465 -0.383485
vn 0.012300 -0.923465 -0.383485
vn 0.012300 -0.923465 -0.383485
vn 0.005800 -0.791863 -0.610671
vn 0.005800 -0.791863 -0.610671
vn 0.005800 -0.791863 -0.610671
vn 0.005800 -0.791863 -0.610671
vn -0.001500 -0.593983 -0.804476
vn -0.001500 -0.593983 -0.804476
vn -0.001500 -0.593983 -0.804476
vn -0.001500 -0.593983 -0.804476
vn 0.007000 0.411003 0.911607
vn 0.007000 0.411003 0.911607
vn 0.007000 0.411003 0.911607
vn 0.007000 0.411003 0.911607
vn 0.999653 0.020299 -0.016799
vn 0.999653 0.020299 -0.016799
vn 0.999653 0.020299 -0.016799
vn 0.999653 0.020299 -0.016799
vn 0.999653 0.020299 -0.016799
vn 0.999653 0.020299 -0.016799
vn 0.999653 0.020299 -0.016799
vn 0.999653 0.020299 -0.016799
vn 0.999653 0.020299 -0.016799
vn 0.999653 0.020299 -0.016799
vn 0.999653 0.020299 -0.016799
vn 0.999653 0.020299 -0.016799
vn 0.999653 0.020299 -0.016799
vn 0.999653 0.020299 -0.016799
vn 0.999653 0.020299 -0.016799
vn -0.999653 -0.020299 0.016799
vn -0.999653 -0.020299 0.016799
vn -0.999653 -0.020299 0.016799
vn -0.999653 -0.020299 0.016799
vn -0.999653 -0.020299 0.016799
vn -0.999653 -0.020299 0.016799
vn -0.999653 -0.020299 0.016799
vn -0.999653 -0.020299 0.016799
vn -0.999653 -0.020299 0.016799
vn -0.999653 -0.020299 0.016799
vn -0.999653 -0.020299 0.016799
vn -0.999653 -0.020299 0.016799
vn -0.999653 -0.020299 0.016799
vn -0.999653 -0.020299 0.016799
vn -0.999653 -0.020299 0.016799
vn -0.023001 0.983029 -0.182005
vn -0.023001 0.983029 -0.182005
vn -0.023001 0.983029 -0.182005
vn -0.023001 0.983029 -0.182005
vn -0.018100 0.992801 0.118400
vn -0.018100 0.992801 0.118400
vn -0.018100 0.992801 0.118400
vn -0.018100 0.992801 0.118400
vn -0.011900 0.917004 0.398702
vn -0.011900 0.917004 0.398702
vn -0.011900 0.917004 0.398702
vn -0.011900 0.917004 0.398702
vn -0.004700 0.765279 0.643682
vn -0.004700 0.765279 0.643682
vn -0.004700 0.765279 0.643682
vn -0.004700 0.765279 0.643682
vn 0.003000 0.544712 0.838618
vn 0.003000 0.544712 0.838618
vn 0.003000 0.544712 0.838618
vn 0.003000 0.544712 0.838618
vn 0.999653 0.020299 -0.016799
vn 0.999653 0.020299 -0.016799
vn 0.999653 0.020299 -0.016799
vn 0.999653 0.020299 -0.016799
vn 0.999653 0.020299 -0.016799
vn 0.999653 0.020299 -0.016799
vn -0.024000 0.440794 -0.897287
vn -0.024000 0.440794 -0.897287
vn -0.024000 0.440794 -0.897287
vn -0.024000 0.440794 -0.897287
vn -0.025300 0.564704 -0.824906
vn -0.025300 0.564704 -0.824906
vn -0.025300 0.564704 -0.824906
vn -0.025300 0.564704 -0.824906
vn -0.025999 0.663779 -0.747477
vn -0.025999 0.663779 -0.747477
vn -0.025999 0.663779 -0.747477
vn -0.025999 0.663779 -0.747477
vn -0.026298 0.755553 -0.654559
vn -0.026298 0.755553 -0.654559
vn -0.026298 0.755553 -0.654559
vn -0.026298 0.755553 -0.654559
vn -0.026099 0.851269 -0.524081
vn -0.026099 0.851269 -0.524081
vn -0.026099 0.851269 -0.524081
vn -0.026099 0.851269 -0.524081
vn -0.025499 0.902282 -0.430391
vn -0.025499 0.902282 -0.430391
vn -0.025499 0.902282 -0.430391
vn -0.025499 0.902282 -0.430391
vn 0.021700 -0.271102 0.962306
vn 0.021700 -0.271102 0.962306
vn 0.021700 -0.271102 0.962306
vn 0.021700 -0.271102 0.962306
vn 0.019099 -0.120996 0.992469
vn 0.019099 -0.120996 0.992469
vn 0.019099 -0.120996 0.992469
vn 0.019099 -0.120996 0.992469
vn 0.016499 0.014399 0.999760
vn 0.016499 0.014399 0.999760
vn 0.016499 0.014399 0.999760
vn 0.016499 0.014399 0.999760
vn 0.013401 0.155507 0.987744
vn 0.013401 0.155507 0.987744
vn 0.013401 0.155507 0.987744
vn 0.013401 0.155507 0.987744
vn 0.009300 0.325499 0.945497
vn 0.009300 0.325499 0.945497
vn 0.009300 0.325499 0.945497
vn 0.009300 0.325499 0.945497
vn 0.999825 0.017600 -0.006400
vn 0.999825 0.017600 -0.006400
vn 0.999825 0.017600 -0.006400
vn 0.999825 0.017600 -0.006400
vn 0.999825 0.017600 -0.006400
vn 0.999825 0.017600 -0.006400
vn 0.999825 0.017600 -0.006400
vn 0.999825 0.017600 -0.006400
vn 0.999825 0.017600 -0.006400
vn 0.999825 0.017600 -0.006400
vn 0.999825 0.017600 -0.006400
vn 0.999825 0.017600 -0.006400
vn 0.999825 0.017600 -0.006400
vn 0.999825 0.017600 -0.006400
s off
g manoIzqElRey_Mesh
usemtl lambert5SG
f 3/1/1 67/2/2 69/3/3 70/4/4 71/5/5 72/6/6 68/7/7 15/8/8 17/9/9 18/10/10 19/11/11 20/12/12 16/13/13 4/14/14
f 1/15/15 9/16/16 11/17/17 12/18/18 13/19/19 14/20/20 10/21/21 61/22/22 63/23/23 64/24/24 65/25/25 66/26/26 62/27/27 2/28/28
f 68/7/29 61/29/30 10/30/31 15/8/32
f 27/31/33 7/32/34 8/33/35 22/34/36
f 56/35/37 55/36/38 3/1/39 4/14/40 40/37/41 42/38/42
f 8/39/43 33/40/44 35/41/45 49/42/46 48/43/47 5/44/48
f 40/37/49 4/14/50 1/45/51 34/46/52
f 79/47/53 81/48/54 82/49/55 83/50/56 84/51/57 80/52/58 6/53/59 7/32/60 27/31/61 29/54/62 30/55/63 31/56/64 32/57/65 28/58/66
f 74/59/67 79/47/68 28/58/69 21/60/70
f 7/32/71 41/61/72 33/62/73 8/33/74
f 15/8/75 10/30/76 14/63/77 17/64/78
f 17/64/79 14/63/80 13/65/81 18/66/82
f 18/66/83 13/67/84 12/68/85 19/69/86
f 19/69/87 12/68/88 11/70/89 20/71/90
f 20/71/91 11/70/92 9/72/93 16/13/94
f 4/14/95 16/13/96 9/72/97 1/45/98
f 21/60/99 28/58/100 32/73/101 23/74/102
f 23/74/103 32/73/104 31/75/105 24/76/106
f 24/76/107 31/75/108 30/77/109 25/78/110
f 25/79/111 30/77/112 29/80/113 26/81/114
f 26/81/115 29/80/116 27/31/117 22/34/118
f 73/82/119 5/44/120 6/53/121 80/52/122
f 6/53/123 54/83/124 56/84/125 42/85/126 41/61/127 7/32/128
f 47/86/129 2/28/130 3/1/131 55/36/132
f 33/40/133 36/87/134 35/41/135
f 36/87/136 37/88/137 35/41/138
f 37/88/139 38/89/140 35/41/141
f 38/89/142 39/90/143 35/41/144
f 39/90/145 34/91/146 35/41/147
f 40/37/148 43/92/149 42/85/150
f 43/92/151 44/93/152 42/85/153
f 44/93/154 45/94/155 42/85/156
f 45/94/157 46/95/158 42/85/159
f 46/95/160 41/96/161 42/85/162
f 40/37/163 34/46/164 39/97/165 43/92/166
f 43/92/167 39/97/168 38/98/169 44/93/170
f 44/93/171 38/98/172 37/99/173 45/100/174
f 45/100/175 37/99/176 36/101/177 46/102/178
f 46/102/179 36/101/180 33/62/181 41/61/182
f 5/44/183 48/43/184 54/83/185 6/53/186
f 47/86/187 50/103/188 49/42/189
f 50/103/190 51/104/191 49/42/192
f 51/104/193 52/105/194 49/42/195
f 52/105/196 53/106/197 49/42/198
f 53/106/199 48/107/200 49/42/201
f 54/83/202 57/108/203 56/35/204
f 57/108/205 58/109/206 56/35/207
f 58/109/208 59/110/209 56/35/210
f 59/110/211 60/111/212 56/35/213
f 60/111/214 55/112/215 56/35/216
f 47/86/217 55/36/218 60/113/219 50/103/220
f 50/103/221 60/113/222 59/114/223 51/104/224
f 51/104/225 59/114/226 58/109/227 52/115/228
f 52/115/229 58/109/230 57/108/231 53/116/232
f 53/116/233 57/108/234 54/83/235 48/43/236
f 35/41/237 34/117/238 1/15/239 2/28/240 47/86/241 49/42/242
f 61/29/243 68/7/244 72/118/245 63/119/246
f 63/119/247 72/118/248 71/120/249 64/121/250
f 64/122/251 71/120/252 70/123/253 65/124/254
f 65/124/255 70/123/256 69/125/257 66/126/258
f 66/126/259 69/125/260 67/2/261 62/27/262
f 2/28/263 62/27/264 67/2/265 3/1/266
f 79/47/267 74/59/268 78/127/269 81/128/270
f 81/128/271 78/127/272 77/129/273 82/130/274
f 82/130/275 77/129/276 76/131/277 83/132/278
f 83/133/279 76/134/280 75/135/281 84/136/282
f 84/136/283 75/135/284 73/82/285 80/52/286
f 21/137/287 23/138/288 24/139/289 25/140/290 26/141/291 22/142/292 8/39/293 5/44/294 73/82/295 75/143/296 76/144/297 77/145/298 78/146/299 74/147/300
